<?xml version="1.0" encoding="UTF-8"?>
<svg id="Layer_1" data-name="Layer 1" xmlns="http://www.w3.org/2000/svg" viewBox="0 0 85.04 64.75">
  <defs>
    <style>
      .cls-1 {
        fill: #231f20;
      }

      .cls-2 {
        fill: #464646;
      }
    </style>
  </defs>
  <g>
    <path class="cls-2" d="M13.68,16.87c2.42.5,5.19.02,7.53.2,2.29.19,4.19.43,5.98.32,3.07-.19,5-.25,5.81-.16.23.02.43-.14.45-.37,0-.06,0-.11-.02-.17l-.12-.36c-.09-.28-.37-.47-.67-.44-3.56.36-6.05.48-7.45.37-3.68-.29-7.49-.38-11.44-.27-.25,0-.45.2-.45.44,0,.22.15.4.37.44Z"/>
    <path class="cls-2" d="M6.66,34.09c.82.59,2.23.78,4.23.57.2-.02.4-.02.6-.02,6.22.24,11.55.22,16-.08,3.41-.23,6.68-.25,9.8-.08,6.6.36,13.85-.35,20.88.21,2.77.22,5.49.17,8.16-.13,2.69-.31,4.35-.48,4.99-.5,1.42-.06,2.69-.19,3.8-.41.64-.13,1.9-.33,3.8-.62.36-.06.57-.41.48-.78-.05-.2-.18-.38-.36-.48-.21-.12-.38-.1-.52.08-.08.1-.22.11-.31.03-.03-.03-.06-.07-.07-.11l-.53-1.95c-.03-.1-.07-.2-.12-.3l-5.41-9.52c-.19-.33-.52-.56-.9-.6-1.9-.23-3.74-.59-5.81-.44-6.68.48-10.98.71-12.9.7-5.94-.03-10.69-.18-14.25-.46-7.89-.63-15.86-.72-23.89-.27-.13,0-.25,0-.38-.05l-1.1-.33c-.24-.07-.5.06-.57.3l-.4,1.22c-.02.06-.05.13-.1.18-1.97,2.68-3.82,5.35-5.54,8.03-1.44,2.24-1.88,4.15.42,5.81ZM37.83,30.36l.04-1.04h0c0-.14.12-.24.26-.24l2.32.1c.14,0,.24.12.24.26l-.04,1.04h0c0,.14-.12.24-.26.24l-2.32-.1c-.14,0-.24-.12-.24-.26ZM37.82,27.73l.04-1.1h0c0-.12.1-.21.22-.2l2.39.1h0c.12,0,.21.1.2.22l-.04,1.1h0c0,.12-.1.21-.22.2l-2.39-.1h0c-.12,0-.21-.1-.2-.22ZM59.7,27.84l-.09-1.07s0-.01,0-.02c0-.2.15-.36.35-.37l2.59-.12c.4-.02.74.28.77.67l.08.98s0,.01,0,.02c0,.16-.11.29-.27.3l-2.85.14c-.3.01-.56-.21-.59-.52ZM63.74,31.23l-2.8.1c-.29.01-.54-.22-.57-.52l-.08-1.05s0-.01,0-.02c0-.19.15-.36.35-.36l2.55-.08c.39-.01.72.28.74.67l.07.96s0,.01,0,.02c0,.16-.12.28-.27.29ZM64.62,28.05l-.35-1.35s-.01-.06-.01-.1c0-.19.16-.35.36-.35l2.33.07c.1,0,.2.06.25.16l.83,1.52c.03.06.05.12.05.19,0,.21-.18.38-.39.37l-2.5-.07c-.26,0-.49-.19-.56-.44ZM67.97,31.3c-.21-.01-.67-.05-1.39-.12-.36-.03-.72-.05-1.08-.05-.25,0-.46-.19-.48-.44l-.07-.88s0-.03,0-.05c.01-.18.17-.32.35-.31.21.01.67.05,1.39.12.36.03.72.05,1.09.05.25,0,.45.19.48.43l.07.88s0,.03,0,.05c-.01.18-.17.32-.35.31ZM72.56,30.57l-.08.56s0,0,0,0c-.04.27-1.35.3-2.92.06l-.16-.03c-.08-.01-.14-.09-.13-.18l.19-1.24s0,0,0,0c.02-.09.1-.14.18-.13l.15.03c1.56.24,2.8.65,2.77.93ZM71.01,26.95l.47,1.47s.01.05.01.08c0,.13-.11.23-.23.22l-1.83-.06c-.31,0-.57-.25-.6-.56l-.11-1.3s0-.02,0-.03c0-.15.13-.26.28-.26l1.49.05c.24,0,.45.17.53.4ZM69.77,23.39s.08.06.11.1c.27.35.44.75.52,1.19.07.38.1.58.08.61-.02.03-.22.08-.6.16-.44.08-.87.07-1.29-.05-.04-.01-.09-.03-.13-.07-.04-.03-.08-.06-.1-.1-.27-.35-.45-.75-.53-1.18-.07-.38-.09-.59-.07-.61.02-.03.22-.08.59-.16.44-.08.87-.06,1.3.06.04.01.08.03.12.06ZM67.09,20.16c.59-.1,1.05-.02,1.37.22.33.24.53.66.61,1.25.03.19-.09.37-.27.42-.64.19-1.14.15-1.49-.11-.35-.26-.54-.73-.55-1.39,0-.19.14-.36.33-.39ZM67.06,23.86l.07.93s0,0,0,.01c0,.17-.13.32-.31.32l-2.26.07c-.34,0-.63-.26-.65-.6l-.06-.85s0,0,0,0c0-.14.1-.25.24-.26l2.48-.07c.26,0,.48.19.5.46ZM63.89,20.22c.22-.04.68-.02,1.38.06.23.03.42.19.49.4l.35,1.09c.02.05.02.11.02.16-.02.24-.22.42-.45.4l-1.69-.1c-.46-.03-.84-.38-.93-.83-.1-.55.26-1.08.82-1.19ZM62.38,23.45c.26,0,.47.21.47.47v.85c0,.26-.21.47-.47.47h-2.57c-.26,0-.47-.21-.47-.46v-.85c0-.26.21-.47.47-.47h2.57s0,0,0,0ZM59.13,20.43l2.36-.05c.36,0,.67.27.69.63l.05.89s0,0,0,0c0,.14-.11.26-.25.27l-2.6.05c-.27,0-.5-.21-.52-.48l-.06-.97s0-.02,0-.03c0-.18.15-.33.33-.33ZM59.29,29.95v1.08s0,.07-.02.11c-.06.14-.21.21-.35.15-.62-.25-1.23-.29-1.83-.13-.05.01-.1.02-.14.02-.3,0-.54-.24-.54-.54v-.86h0c0-.2.16-.36.37-.36h1.99c.3,0,.54.24.54.54ZM58.71,27.46v.65s0,0,0,0c0,.08-.07.15-.16.14h-2.42c-.08-.02-.14-.08-.14-.16v-.65c0-.62.45-1.13.99-1.12h.76c.54,0,.98.51.97,1.14ZM58.06,23.46c.12,0,.21.09.21.2l.04,1.32c0,.12-.09.21-.2.21l-2.14.06h0c-.12,0-.21-.09-.21-.2l-.04-1.32c0-.12.09-.21.2-.21l2.14-.06h0ZM56.04,20.63l1.15-.07c.31-.02.58.33.61.77l.05.68c0,.09-.07.17-.16.18l-1.93.12c-.09,0-.17-.07-.18-.16l-.05-.68c-.03-.45.2-.82.51-.84ZM55.48,30.66c.02.05.03.1.02.16,0,.23-.2.42-.43.41l-1.67-.06c-.46-.02-.85-.35-.94-.8-.11-.54.25-1.07.79-1.18.21-.04.67-.03,1.37.03.23.02.42.18.49.39l.37,1.06ZM54.99,26.88l.02.89c0,.21-.16.38-.37.39l-1.97.04c-.21,0-.38-.16-.39-.37l-.02-.89c0-.21.16-.38.37-.39l1.97-.04c.21,0,.38.16.39.37ZM54.73,23.63l.05,1.36c0,.17-.12.31-.29.32l-2.02.08c-.17,0-.31-.13-.32-.29l-.05-1.36c0-.17.12-.31.29-.32l2.02-.08c.17,0,.31.13.32.29ZM51.91,21.36c.01-.33.23-.59.49-.58l2.06.08s0,0,0,0c.08,0,.14.07.14.15l-.04,1.12s0,0,0,0c0,.08-.07.14-.15.14l-2.06-.08c-.26-.01-.46-.29-.44-.62v-.21ZM51.6,30.08c.14.53-.16,1.03-.68,1.1-.36.05-.73,0-1.12-.12-.32-.11-.58-.37-.68-.69-.18-.53.1-1.07.61-1.2.26-.07.64-.03,1.14.13.35.12.63.42.73.78ZM51.21,26.78l.04.95c0,.18-.13.33-.31.34l-1.41.06h0c-.18,0-.33-.13-.34-.31l-.04-.95c0-.18.13-.33.31-.34l1.41-.06h0c.18,0,.33.13.34.31ZM51.09,23.46v1.65c0,.1-.07.18-.17.18h-1.82c-.1.01-.18-.07-.18-.17v-1.65c0-.1.07-.18.17-.18h1.82s0,0,0,0c.1,0,.18.08.18.18ZM49.26,20.84l1.18-.04c.26,0,.47.19.48.45v.44c.02.26-.18.47-.44.48l-1.18.04c-.26,0-.47-.19-.48-.45v-.44c-.02-.26.18-.47.44-.48ZM48.18,29.71v.72c-.01.27-.23.48-.5.48l-1.79-.02c-.27,0-.48-.22-.48-.49v-.72c.01-.27.23-.48.5-.48l1.79.02c.27,0,.48.22.48.49ZM48.04,26.87v.81c0,.22-.18.39-.39.39h-1.99c-.22,0-.39-.18-.39-.4v-.81c0-.22.18-.39.39-.39h1.99c.22,0,.39.18.39.4ZM47.89,23.45l-.03,1.68c0,.13-.11.23-.23.22l-2.16-.04c-.13,0-.23-.11-.22-.23l.03-1.68h0c0-.13.11-.23.23-.22l2.16.04c.13,0,.23.11.22.23ZM45.14,21.02h0c0-.19.16-.34.34-.33l1.95.03h0c.19,0,.34.16.33.34v.65s-.01,0-.01,0c0,.19-.16.34-.34.33l-1.95-.03h0c-.19,0-.34-.16-.33-.34v-.65ZM44.46,29.6l-.03.8c0,.19-.17.35-.37.34l-2.01-.08h0c-.19,0-.35-.17-.34-.37l.03-.8c0-.19.17-.35.37-.34l2.01.08h0c.19,0,.35.17.34.37ZM41.75,26.74h0c0-.14.11-.25.24-.25l1.97-.05c.14,0,.25.11.25.24l.03,1.06h0c0,.14-.11.25-.24.25l-1.97.05c-.14,0-.25-.11-.25-.24l-.03-1.06ZM44.32,24.88c0,.23-.18.42-.41.43l-1.75.04h0c-.23,0-.42-.18-.43-.41l-.03-1.48c0-.23.18-.42.41-.43l1.75-.04h0c.23,0,.42.18.43.41l.03,1.48ZM41.68,20.98h0c0-.23.2-.4.43-.4l1.71.06h0c.23,0,.4.2.4.43l-.02.42h0c0,.23-.2.4-.43.4l-1.71-.06h0c-.23,0-.4-.2-.4-.43l.02-.42ZM41.62,32.26c.55-.58,1.4-.67,2.57-.25.24.09.4.19.48.31.1.17.23.28.4.33.24.07.51,0,.68-.18.02-.02.05-.05.08-.11.11-.16.29-.25.48-.25,1.81-.04,3.31.09,4.49.39.19.06.33.23.34.44,0,.26-.19.48-.45.49h-12.37c-.13,0-.23-.1-.23-.23v-1.27s0,0,0,0c0-.11.1-.2.21-.2,1.46.06,2.43.25,2.91.58.13.09.31.07.42-.04ZM37.68,20.74c.02-.22.2-.38.42-.36l2.31.17s0,0,0,0c.22.02.38.2.36.42l-.04.57c-.02.22-.2.38-.42.36l-2.31-.17s0,0,0,0c-.22-.02-.38-.2-.36-.42l.04-.57ZM37.67,23.36h0c.01-.26.23-.45.49-.44l2.14.11h0c.26.01.45.23.44.49l-.07,1.4h0c-.01.26-.23.45-.49.44l-2.14-.11h0c-.26-.01-.45-.23-.44-.49l.07-1.4ZM19.96,30.11l-2.37.1s0,0,0,0c-.13,0-.24-.11-.24-.24v-.82c0-.33.25-.6.58-.61l2.16-.1s0,0,.01,0c.17,0,.3.13.3.3v.89c0,.25-.19.46-.44.47ZM21.01,26.81c0,.24-.19.43-.42.44l-2.28.03s-.08,0-.11-.03c-.12-.06-.16-.21-.1-.33l.51-.91c.07-.13.2-.21.35-.21l1.75-.02c.17,0,.3.14.3.31v.72s.01,0,.01,0ZM24.26,29.71h0c0,.25-.2.46-.46.46h-2.42s-.09-.01-.12-.03c-.12-.07-.17-.22-.1-.35l.56-.95c.07-.13.21-.22.37-.22h1.86c.18,0,.32.15.32.33v.76ZM24.85,26.24l-.32.97c-.06.2-.24.34-.44.36-.63.06-1.04.07-1.23.04-.43-.07-.74-.43-.76-.86-.02-.5.37-.92.87-.94l1.5-.07s.09,0,.14.02c.2.07.31.28.24.48ZM28.33,30.06c0,.25-.21.44-.46.43l-2.18-.07h0c-.25,0-.44-.21-.43-.46l.03-.82c0-.25.21-.44.46-.43l2.18.07h0c.25,0,.44.21.43.46l-.03.82ZM32.37,32.93s0,0,0,0c0,.18-.15.32-.33.31h-1.82c-.7-.01-1.26-.34-1.25-.74v-.26s0,0,0,0c0-.4.57-.72,1.27-.72h1.82c.17.01.31.15.31.33v1.07ZM32.59,30.21h0c0,.17-.15.31-.32.31l-2.64-.06c-.17,0-.31-.15-.31-.32l.02-1.07h0c0-.17.15-.31.32-.31l2.64.06c.17,0,.31.15.31.32l-.02,1.07ZM34.24,20.2s0,0,0,0c.01-.1.1-.17.2-.15l1.61.15c.35.03.61.31.59.63l-.05.57s0,0,0,0c-.03.32-.34.54-.7.51l-1.61-.15s0,0,0,0c-.1-.01-.17-.1-.15-.2l.12-1.37ZM33.94,23.22c0-.14.11-.25.25-.25l2.14.03h0c.14,0,.25.11.25.25l-.02,1.66c0,.14-.11.25-.25.25l-2.14-.03h0c-.14,0-.25-.11-.25-.25l.02-1.66ZM33.71,26.57c0-.19.16-.34.35-.33l2.35.05c.19,0,.34.16.33.35l-.02.95c0,.19-.16.34-.35.33l-2.35-.05c-.19,0-.34-.16-.33-.35l.02-.95ZM33.55,29.15c0-.1.08-.18.18-.18h2.94s0,.01,0,.01c.1,0,.18.08.18.18v1.11c0,.1-.08.18-.18.18h-2.94c-.1-.01-.18-.09-.18-.19v-1.11ZM33.76,31.6h2.86c.14,0,.25.11.26.25v1.16c0,.14-.11.25-.25.26h-2.86c-.14,0-.25-.11-.26-.25v-1.16c0-.14.11-.25.25-.26ZM30.54,20.84c.03-.62.43-1.11.89-1.09l.98.05c.46.02.81.55.78,1.18l-.04.79h0c0,.09-.08.16-.17.16l-2.34-.12c-.09,0-.15-.08-.15-.17l.04-.79ZM30.15,23.2c0-.15.14-.26.28-.25l2.23.14h0c.15,0,.26.14.25.28l-.08,1.28c0,.15-.14.26-.28.25l-2.23-.14h0c-.15,0-.26-.14-.25-.28l.08-1.28ZM30.04,25.94l2.28.08c.21,0,.37.18.36.39l-.03.95h0c0,.21-.18.37-.39.36l-2.28-.08c-.21,0-.37-.18-.36-.39l.03-.95h0c0-.21.18-.37.39-.36ZM26.77,21.23l.3-1.05c.06-.21.24-.37.46-.4.67-.09,1.1-.12,1.31-.09.45.06.79.43.83.87.05.53-.35,1-.88,1.05l-1.59.14c-.05,0-.11,0-.16-.02-.21-.07-.33-.29-.27-.51ZM26.31,23.02h0c.01-.15.14-.26.29-.25l2.19.18c.15.01.26.14.25.29l-.1,1.22s0,0,0,0c-.01.15-.14.26-.29.25l-2.19-.18c-.15-.01-.26-.14-.25-.29l.1-1.22ZM28.3,25.79h0c.18.01.32.17.31.35l-.08,1.26h0c-.01.18-.17.32-.35.31l-2.12-.14h0c-.18-.01-.32-.17-.31-.35l.08-1.26s0,0,0,0c.01-.18.17-.32.35-.31l2.12.14ZM23.42,21.27l.18-.99c.03-.2.18-.36.37-.41.61-.16,1-.23,1.2-.23.41.01.76.31.85.71.1.48-.21.96-.69,1.06l-1.45.3s-.1.01-.15,0c-.2-.04-.34-.24-.3-.44ZM23.35,22.92c.61-.1,1-.15,1.2-.12.43.04.77.37.81.8.04.49-.31.91-.8.96l-1.45.17s-.09,0-.14,0c-.2-.05-.32-.26-.27-.45l.25-.96c.05-.19.21-.34.4-.38ZM20.15,21.14l.21-.99c.04-.2.2-.36.4-.4.62-.13,1.03-.19,1.22-.18.45.01.82.35.87.8.06.49-.3.94-.79,1l-1.48.24s-.1,0-.14,0c-.2-.05-.33-.25-.29-.45ZM19.74,22.87l1.89-.07s.05,0,.08,0c.15.04.25.19.21.35l-.28,1.1c-.05.21-.23.36-.45.37l-2.03.07c-.06,0-.11,0-.16-.04-.15-.08-.21-.27-.13-.42l.67-1.25c.04-.08.11-.13.2-.13ZM16.51,21.21c.65-1.12,1.5-1.67,2.55-1.64.03,0,.06,0,.09.01.19.05.3.25.25.44l-.3,1.12c-.07.26-.3.43-.57.43h-1.8s-.09-.01-.13-.03c-.11-.07-.15-.22-.08-.33ZM15.29,24.2l.33-1.08c.06-.21.25-.35.47-.34l2.02.04c.05,0,.1.02.15.04.15.09.19.28.11.42l-.73,1.2c-.05.08-.13.12-.21.12l-1.88-.04s-.05,0-.08-.01c-.15-.05-.23-.2-.18-.35ZM14.14,26.88l.79-1.17c.05-.08.13-.12.22-.11l1.89.12s.05,0,.08.02c.15.05.23.22.17.37l-.39,1.06c-.07.2-.27.34-.49.32l-2.02-.13c-.06,0-.12-.02-.17-.06-.14-.1-.17-.29-.07-.43ZM12.66,30.05l.86-1.48c.05-.09.15-.15.25-.15h2.3s.07,0,.1.01c.18.05.29.25.23.43l-.39,1.33c-.07.25-.3.43-.56.42h-2.47c-.06,0-.12-.02-.18-.05-.18-.1-.25-.33-.15-.51Z"/>
    <path class="cls-2" d="M84.99,36.73c-.23-1.11-.28-2.18-.14-3.21.05-.35.04-.7-.03-1.05-.36-1.69-.76-2.95-1.21-3.79-1-1.87-1.55-2.89-1.65-3.07-1.79-3.14-4.12-6.3-6.99-9.5-.22-.25-.5-.91-.82-1.99-.07-.24-.02-.5.14-.7l.13-.16c.17-.22.22-.52.13-.78-.45-1.25-1.08-2.04-1.87-2.37-.2-.08-.33-.28-.33-.5,0-.43-.03-.71-.11-.86-.13-.24-.34-.36-.61-.37-.5-.02-.78-.05-.83-.09-.02-.01-.03-.03-.04-.04-.12-.13-.1-.33.02-.44.27-.24.4-.53.42-.86,0-.02,0-.03,0-.05-.02-.23-.22-.4-.45-.38l-1.33.12c-.08,0-.15-.01-.22-.05-.17-.11-.23-.33-.12-.5.19-.29.2-.54.03-.76-.11-.14-.28-.22-.45-.23-1.1-.08-1.68-.58-1.74-1.5-.02-.21-.16-.39-.36-.45-.92-.29-1.51-.92-1.77-1.89-.04-.16-.15-.3-.29-.39l-1.35-.78c-.25-.14-.55-.1-.75.1-.03.05-.06.08-.07.08-.18.2-.43.31-.7.31l-15.81.21s-.05,0-.08,0l-4.62-.1c-4.92-.34-9.84-.34-14.77,0-1.51.1-3.24.13-5.17.07-.19,0-.38.06-.52.18-1.47,1.22-2.59,2.31-3.34,3.26-.18.23-.38.43-.61.61-2.79,2.16-5,4.12-6.64,5.9-.88.95-.48,2.07-1.02,2.93-.23.37-.2.76.1,1.18.15.22.13.51-.06.7-.19.19-.89,1.4-2.1,3.62-.45.82-1.19,2.01-2.22,3.56-1.18,1.78-2.37,3.86-3.58,6.26C.46,30.4.07,31.92,0,33.53c0,.25.04.51.14.74.43.99.69,2.19.78,3.59,0,.05.02.1.03.16l1.18,3.64c.03.11.09.21.16.29.88,1,1.99,1.55,3.34,1.65,2.58.18,3.99.26,4.23.24,1.28-.1,2.63-.04,4.04.18.22.03.45.03.67,0,1.02-.15,2.17-.2,3.45-.16,4.2.13,7.47.27,9.8.41,7.07.44,13.42.02,20.89-.07.91-.01,2.27-.36,3.34-.35,2.97.03,6.38-.03,10.22-.16,2.77-.09,5.43.18,8.28,0,1.51-.1,3.29-.13,5.34-.12,2.6.03,5.16-.22,7.66-.73.52-.11.89-.58.88-1.12-.04-1.38.13-2.66.51-3.84.12-.38.15-.78.07-1.17ZM1.12,32.43c.7-2.18,1.5-3.98,2.4-5.38,3.16-4.98,5.21-8.43,6.15-10.33.27-.54.42-1.42.47-2.66.1-2.7,1.62-4.59,4.43-4.3.34.03.65-.22.68-.56.02-.26-.11-.5-.34-.62l-.3-.16c-.07-.04-.1-.13-.06-.2.02-.04.06-.07.1-.08.43-.07,1.18-.07,2.23.01.26.02.48-.17.5-.42,0,0,0-.01,0-.02.03-.48-.22-.81-.74-.98-.1-.03-.15-.13-.13-.23.05-.22.19-.34.41-.35.85-.03,1.63.02,2.33.14.26.05.5-.12.55-.38.03-.17-.03-.34-.17-.45-.35-.29-.77-.42-1.27-.41-.14,0-.25-.1-.26-.23,0-.1.05-.19.14-.24.83-.45,1.81-.6,2.96-.46.17.02.33-.1.35-.28.01-.1-.03-.2-.1-.27l-.7-.65c-.22-.2-.23-.53-.04-.75.1-.11.25-.17.4-.17,3.08-.01,6.49-.1,10.23-.27,3.85-.18,8.28.18,11.98.21,1.03.01,1.68.03,1.95.05,1.41.12,3.1.16,5.07.1,4.13-.11,8.26-.2,12.41-.29.36,0,.7.12.96.37l.65.6c.13.12.14.32.02.45-.05.06-.13.1-.21.1l-2.12.19c-.27.02-.48.25-.49.52v.24c-.01.22.16.4.38.41.02,0,.03,0,.05,0l3.35-.29c.27-.02.53.11.67.35l.09.16c.07.11.03.26-.09.33-.03.02-.06.03-.1.03l-1.19.1c-.31.03-.56.29-.57.6v.26c-.01.23.16.42.39.43.02,0,.04,0,.05,0l2.57-.22c.16-.02.3.1.31.26,0,0,0,0,0,0l.02.23c.01.09-.05.16-.14.18,0,0-.01,0-.02,0-.64-.01-1.01.07-1.14.24-.27.4-.18.69.27.88.24.1.57.09,1.01,0,.24-.06.47.09.53.33,0,.02,0,.04,0,.05.1.8.75,1.2,1.95,1.19.42,0,.64.12.67.38.01.14-.1.26-.24.27,0,0-.02,0-.03,0l-.95-.03c-.17,0-.31.13-.31.3,0,.05.01.11.04.16l.19.33c.06.11.18.18.3.18l2.02.06c.18,0,.36.08.49.2l.72.66c.1.09.11.24.03.34-.05.06-.12.09-.2.08-4.9-.1-9.68-.25-14.36-.44-1.46-.07-2.98.11-4.35-.05-2.21-.27-4.35-.38-6.43-.35-7.53.1-11.42.16-11.68.18-3.4.23-6.93.24-10.6.02-4.04-.24-8.52-.26-13.46-.07-.23.01-.41.21-.4.44,0,.06.02.13.05.18l.12.22c.05.09.14.14.24.14l20.56.65c.09,0,.17,0,.26-.02.92-.16,1.54-.24,1.86-.25,5.92-.24,10.59-.27,14.02-.1,5.68.29,9.61.43,11.78.43,4.08,0,8.01.16,11.8.48.45.04.84.35.98.78.42,1.3.82,2.06,1.85,3.12,2.82,2.89,5.15,6.14,6.98,9.75.95,1.87,2.09,4.02,1.78,5.75-.13.7-.67,1.48-1.65,2.36-.38.34-1.31.58-2.78.72-2.94.26-5.26.34-6.95.25-5.3-.3-12.17.2-16.02.42-7.14.41-13.8.24-19.98-.52-4.77-.58-6.92-.21-12.51.14-5.31.33-10.59-.26-15.92-.42-1.11-.03-2.23-.13-3.38-.29-2.17-.29-2.75-1.03-3.38-2.87-.1-.3-.1-.62,0-.92ZM83,41.94s-.08.02-.12.03c-3.06.49-5.97.66-8.73.5-.23-.01-.46,0-.69.03-2.22.29-3.55.42-4,.39-6.26-.35-10.3-.42-12.14-.2-.77.09-1.41.12-1.92.08-4.16-.27-7.02.55-10.44.35-1.27-.07-4.54-.05-9.79.06-3.36.07-7.86-.02-13.51-.29-2.38-.11-5.35-.18-8.9-.21-3.66-.03-6.68-.23-9.07-.59-.37-.06-.65-.36-.69-.74l-.15-1.71c-.02-.16.1-.31.27-.33.05,0,.09,0,.14.02,2.77,1.01,7.57.11,10.68.86.4.1,1.93.12,4.58.08,3.7-.06,8.22-.07,13.57-.03,2.86.02,5.23.12,7.11.29,1.64.14,3.51.1,5.61-.14,1.43-.16,3.3-.21,5.59-.15,8.85.24,17.74,0,26.66-.69.16-.01.32,0,.48.01,1.49.2,3.07.1,4.76-.31.39-.09.79.13.91.52l.35,1.08c.15.45-.1.94-.56,1.09ZM84.04,37.5c-.07.51-.55.91-1.14.95-1.92.14-4.15.17-6.68.07-2.79-.11-5.43.48-8.08.54-7.08.17-13.62.24-19.62.23-2.3,0-4.35.1-6.15.3-3.1.36-6.02-.63-9.18-.29-.27.03-2.37-.02-6.3-.13-.45-.01-2.56,0-6.31.03-6.77.06-12.06-.11-15.86-.52-1.37-.15-2.44-.71-3.21-1.69-.06-.08-.04-.18.03-.24.04-.03.09-.04.13-.03,4.73,1.14,10.18.86,14.87,1.23,3.09.25,5.37.3,6.84.15,2.66-.27,8.16-.59,12.19-.28,5.49.42,9.81.65,12.96.69,2.97.03,8.63-.11,16.98-.44,2.53-.1,5.04-.12,7.52-.07,3.52.08,6.57-.11,9.6-.83.29-.07.51-.29.59-.57,0-.03.02-.07.04-.13.04-.16.21-.27.37-.23.06.02.12.05.16.1.24.29.32.67.25,1.16Z"/>
  </g>
  <g>
    <path class="cls-1" d="M21.68,58.17h4.96c.03.79.05,1.34.05,1.63,0,1.18-.19,2.14-.56,2.85-.39.75-1.13,1.27-2.23,1.56-1.2.33-3.28.49-6.23.49-3.25,0-5.45-.05-6.58-.16-1.46-.13-2.53-.37-3.21-.72-.84-.44-1.4-1.13-1.68-2.06-.23-.76-.35-2.54-.35-5.35,0-2.32.06-3.89.18-4.71.18-1.22.65-2.1,1.42-2.65.59-.42,1.53-.72,2.83-.88,1.33-.17,3.75-.26,7.27-.26,1.98,0,3.42.04,4.32.13,1.32.13,2.28.38,2.89.76.75.47,1.22,1.15,1.42,2.05.14.63.21,1.36.21,2.2,0,.14,0,.46-.01.94h-4.96c-.03-.76-.13-1.24-.29-1.46-.18-.24-.74-.39-1.66-.46-.93-.06-2.05-.1-3.37-.1-1.73,0-2.92.05-3.58.14-.8.11-1.29.54-1.48,1.3-.15.61-.23,1.6-.23,2.96s.08,2.37.23,2.9c.19.69.72,1.09,1.58,1.21.69.09,1.86.13,3.51.13,2,0,3.36-.04,4.07-.12.65-.07,1.07-.31,1.24-.7.14-.33.22-.88.24-1.63Z"/>
    <path class="cls-1" d="M36.19,52.6c2.2,0,3.87.12,5.01.36,1.21.25,2.06.86,2.54,1.8.27.52.43,1.08.48,1.67.05.56.07,1.23.07,2.02,0,1.57-.08,2.65-.23,3.26-.33,1.31-1.11,2.18-2.36,2.59-.95.31-2.82.46-5.6.46-2.43,0-4.18-.12-5.25-.37-1.27-.29-2.1-.98-2.52-2.06-.19-.51-.31-1.04-.35-1.6-.05-.68-.07-1.44-.07-2.28,0-1.46.09-2.47.27-3.04.4-1.2,1.22-1.99,2.47-2.36,1.01-.29,2.85-.44,5.52-.44ZM36.11,55.85c-1.4,0-2.35.11-2.86.33-.4.18-.67.49-.81.93-.13.38-.19.94-.19,1.66,0,.81.08,1.38.23,1.69.21.44.71.73,1.49.87.54.1,1.27.16,2.18.16,1.53,0,2.54-.15,3.03-.44.33-.2.56-.51.67-.92.09-.33.13-.84.13-1.5,0-.88-.1-1.5-.3-1.84-.22-.4-.72-.66-1.49-.8-.56-.1-1.25-.14-2.08-.14Z"/>
    <path class="cls-1" d="M61.57,58.17h4.96c.03.79.05,1.34.05,1.63,0,1.18-.19,2.14-.56,2.85-.39.75-1.13,1.27-2.23,1.56-1.2.33-3.28.49-6.23.49-3.25,0-5.45-.05-6.58-.16-1.46-.13-2.53-.37-3.21-.72-.84-.44-1.4-1.13-1.68-2.06-.23-.76-.35-2.54-.35-5.35,0-2.32.06-3.89.18-4.71.18-1.22.65-2.1,1.42-2.65.59-.42,1.53-.72,2.83-.88,1.33-.17,3.75-.26,7.27-.26,1.98,0,3.42.04,4.32.13,1.32.13,2.28.38,2.89.76.75.47,1.22,1.15,1.42,2.05.14.63.21,1.36.21,2.2,0,.14,0,.46-.01.94h-4.96c-.03-.76-.13-1.24-.29-1.46-.18-.24-.74-.39-1.66-.46-.93-.06-2.05-.1-3.37-.1-1.73,0-2.92.05-3.58.14-.8.11-1.29.54-1.48,1.3-.15.61-.23,1.6-.23,2.96s.08,2.37.23,2.9c.19.69.72,1.09,1.58,1.21.69.09,1.86.13,3.51.13,2,0,3.36-.04,4.07-.12.65-.07,1.07-.31,1.24-.7.14-.33.22-.88.24-1.63Z"/>
    <path class="cls-1" d="M76.08,52.6c2.2,0,3.87.12,5.01.36,1.21.25,2.06.86,2.54,1.8.27.52.43,1.08.48,1.67.05.56.07,1.23.07,2.02,0,1.57-.08,2.65-.23,3.26-.33,1.31-1.11,2.18-2.36,2.59-.95.31-2.82.46-5.6.46-2.43,0-4.18-.12-5.25-.37-1.27-.29-2.1-.98-2.52-2.06-.19-.51-.31-1.04-.35-1.6-.05-.68-.07-1.44-.07-2.28,0-1.46.09-2.47.27-3.04.4-1.2,1.22-1.99,2.47-2.36,1.01-.29,2.85-.44,5.52-.44ZM76,55.85c-1.4,0-2.35.11-2.86.33-.4.18-.67.49-.81.93-.13.38-.19.94-.19,1.66,0,.81.08,1.38.23,1.69.21.44.71.73,1.49.87.54.1,1.27.16,2.18.16,1.53,0,2.54-.15,3.03-.44.33-.2.56-.51.67-.92.09-.33.13-.84.13-1.5,0-.88-.1-1.5-.3-1.84-.22-.4-.72-.66-1.49-.8-.56-.1-1.25-.14-2.08-.14Z"/>
  </g>
</svg>