<?xml version="1.0" encoding="UTF-8"?>
<svg id="Layer_1" xmlns="http://www.w3.org/2000/svg" version="1.1" viewBox="0 0 85.04 64.75">
  <!-- Generator: Adobe Illustrator 29.5.1, SVG Export Plug-In . SVG Version: 2.1.0 Build 141)  -->
  <defs>
    <style>
      .st0 {
        fill: #231f20;
      }

      .st1 {
        fill: #464646;
      }
    </style>
  </defs>
  <g>
    <path class="st1" d="M8.38,35.41c1.48.31,3.18.01,4.61.12,1.4.12,2.57.26,3.66.2,1.88-.12,3.06-.15,3.56-.1.14.01.26-.09.28-.23,0-.04,0-.07-.01-.1l-.07-.22c-.06-.17-.23-.29-.41-.27-2.18.22-3.71.29-4.57.23-2.26-.18-4.59-.23-7.01-.17-.15,0-.28.12-.28.27,0,.13.09.25.23.27h0Z"/>
    <path class="st1" d="M4.08,45.96c.5.36,1.37.48,2.59.35.12-.01.25-.01.37-.01,3.81.15,7.08.13,9.81-.05,2.09-.14,4.09-.15,6.01-.05,4.04.22,8.49-.21,12.8.13,1.7.13,3.36.1,5-.08,1.65-.19,2.67-.29,3.06-.31.87-.04,1.65-.12,2.33-.25.39-.08,1.16-.2,2.33-.38.22-.04.35-.25.29-.48-.03-.12-.11-.23-.22-.29-.13-.07-.23-.06-.32.05-.05.06-.13.07-.19.02-.02-.02-.04-.04-.04-.07l-.32-1.2c-.02-.06-.04-.12-.07-.18l-3.32-5.83c-.12-.2-.32-.34-.55-.37-1.16-.14-2.29-.36-3.56-.27-4.09.29-6.73.44-7.91.43-3.64-.02-6.55-.11-8.73-.28-4.84-.39-9.72-.44-14.64-.17-.08,0-.15,0-.23-.03l-.67-.2c-.15-.04-.31.04-.35.18l-.25.75s-.03.08-.06.11c-1.21,1.64-2.34,3.28-3.4,4.92-.88,1.37-1.15,2.54.26,3.56h0ZM23.18,43.68l.02-.64h0c0-.09.07-.15.16-.15l1.42.06c.09,0,.15.07.15.16l-.02.64h0c0,.09-.07.15-.16.15l-1.42-.06c-.09,0-.15-.07-.15-.16ZM23.18,42.07l.02-.67h0c0-.07.06-.13.13-.12l1.46.06h0c.07,0,.13.06.12.13l-.02.67h0c0,.07-.06.13-.13.12l-1.46-.06h0c-.07,0-.13-.06-.12-.13ZM36.59,42.13l-.06-.66h0c0-.13.09-.23.21-.24l1.59-.07c.25-.01.45.17.47.41l.05.6h0c0,.11-.07.19-.17.2l-1.75.09c-.18,0-.34-.13-.36-.32h0ZM39.06,44.21l-1.72.06c-.18,0-.33-.13-.35-.32l-.05-.64h0c0-.13.09-.23.21-.23l1.56-.05c.24,0,.44.17.45.41l.04.59h0c0,.11-.07.18-.17.19h0ZM39.6,42.26l-.21-.83s0-.04,0-.06c0-.12.1-.21.22-.21l1.43.04c.06,0,.12.04.15.1l.51.93s.03.07.03.12c0,.13-.11.23-.24.23l-1.53-.04c-.16,0-.3-.12-.34-.27h0ZM41.66,44.25c-.13,0-.41-.03-.85-.07-.22-.02-.44-.03-.66-.03-.15,0-.28-.12-.29-.27l-.04-.54v-.03c0-.11.1-.2.21-.19.13,0,.41.03.85.07.22.02.44.03.67.03.15,0,.28.12.29.26l.04.54v.03c0,.11-.1.2-.21.19h0ZM44.47,43.81l-.05.34h0c-.02.17-.83.18-1.79.04l-.1-.02s-.09-.06-.08-.11l.12-.76h0c.01-.06.06-.09.11-.08l.09.02c.96.15,1.72.4,1.7.57ZM43.52,41.59l.29.9s0,.03,0,.05c0,.08-.07.14-.14.13l-1.12-.04c-.19,0-.35-.15-.37-.34l-.07-.8v-.02c0-.09.08-.16.17-.16l.91.03c.15,0,.28.1.32.25h0ZM42.76,39.41s.05.04.07.06c.17.21.27.46.32.73.04.23.06.36.05.37s-.13.05-.37.1c-.27.05-.53.04-.79-.03-.02,0-.06-.02-.08-.04-.02-.02-.05-.04-.06-.06-.17-.21-.28-.46-.32-.72-.04-.23-.06-.36-.04-.37.01-.02.13-.05.36-.1.27-.05.53-.04.8.04.02,0,.05.02.07.04h0ZM41.12,37.43c.36-.06.64-.01.84.13.2.15.32.4.37.77.02.12-.06.23-.17.26-.39.12-.7.09-.91-.07s-.33-.45-.34-.85c0-.12.09-.22.2-.24ZM41.1,39.69l.04.57h0c0,.11-.08.2-.19.2l-1.39.04c-.21,0-.39-.16-.4-.37l-.04-.52h0c0-.09.06-.15.15-.16l1.52-.04c.16,0,.29.12.31.28h0ZM39.16,37.46c.13-.02.42-.01.85.04.14.02.26.12.3.25l.21.67s.01.07.01.1c-.01.15-.13.26-.28.25l-1.04-.06c-.28-.02-.51-.23-.57-.51-.06-.34.16-.66.5-.73h0ZM38.23,39.44c.16,0,.29.13.29.29v.52c0,.16-.13.29-.29.29h-1.58c-.16,0-.29-.13-.29-.28v-.52c0-.16.13-.29.29-.29h1.58ZM36.24,37.59l1.45-.03c.22,0,.41.17.42.39l.03.55h0c0,.09-.07.16-.15.17l-1.59.03c-.17,0-.31-.13-.32-.29l-.04-.59v-.02c0-.11.09-.2.2-.2h0ZM36.34,43.43v.66s0,.04-.01.07c-.04.09-.13.13-.21.09-.38-.15-.75-.18-1.12-.08-.03,0-.06.01-.09.01-.18,0-.33-.15-.33-.33v-.53h0c0-.12.1-.22.23-.22h1.22c.18,0,.33.15.33.33h-.01ZM35.98,41.9v.4h0s-.04.09-.1.09h-1.48s-.09-.05-.09-.1v-.4c0-.38.28-.69.61-.69h.47c.33,0,.6.31.59.7ZM35.58,39.45c.07,0,.13.06.13.12l.02.81c0,.07-.06.13-.12.13l-1.31.04h0c-.07,0-.13-.06-.13-.12l-.02-.81c0-.07.06-.13.12-.13l1.31-.04h0ZM34.35,37.71l.7-.04c.19-.01.36.2.37.47l.03.42c0,.06-.04.1-.1.11l-1.18.07c-.06,0-.1-.04-.11-.1l-.03-.42c-.02-.28.12-.5.31-.51ZM34,43.86s.02.06.01.1c0,.14-.12.26-.26.25l-1.02-.04c-.28-.01-.52-.21-.58-.49-.07-.33.15-.66.48-.72.13-.02.41-.02.84.02.14.01.26.11.3.24l.23.65h0ZM33.7,41.54v.55c.01.13-.09.23-.21.24l-1.21.02c-.13,0-.23-.1-.24-.23v-.55c-.01-.13.09-.23.21-.24l1.21-.02c.13,0,.23.1.24.23ZM33.54,39.55l.03.83c0,.1-.07.19-.18.2l-1.24.05c-.1,0-.19-.08-.2-.18l-.03-.83c0-.1.07-.19.18-.2l1.24-.05c.1,0,.19.08.2.18ZM31.81,38.16c0-.2.14-.36.3-.36l1.26.05h0s.09.04.09.09l-.02.69h0s-.04.09-.09.09l-1.26-.05c-.16,0-.28-.18-.27-.38v-.13ZM31.62,43.51c.09.32-.1.63-.42.67-.22.03-.45,0-.69-.07-.2-.07-.36-.23-.42-.42-.11-.32.06-.66.37-.74.16-.04.39-.02.7.08.21.07.39.26.45.48ZM31.39,41.48l.02.58c0,.11-.08.2-.19.21l-.86.04h0c-.11,0-.2-.08-.21-.19l-.02-.58c0-.11.08-.2.19-.21l.86-.04h0c.11,0,.2.08.21.19ZM31.31,39.45v1.01c0,.06-.04.11-.1.11h-1.12c-.06,0-.11-.04-.11-.1v-1.01c0-.06.04-.11.1-.11h1.12c.06,0,.11.05.11.11h0ZM30.19,37.84l.72-.02c.16,0,.29.12.29.28v.27c.01.16-.11.29-.27.29l-.72.02c-.16,0-.29-.12-.29-.28v-.27c-.01-.16.11-.29.27-.29ZM29.53,43.28v.44c0,.17-.14.29-.31.29h-1.1c-.17-.01-.29-.15-.29-.31v-.44c0-.17.14-.29.31-.29h1.1c.17.01.29.15.29.31ZM29.44,41.54v.5c0,.13-.11.24-.24.24h-1.22c-.13,0-.24-.11-.24-.25v-.5c0-.13.11-.24.24-.24h1.22c.13,0,.24.11.24.25ZM29.35,39.44l-.02,1.03c0,.08-.07.14-.14.13l-1.32-.02c-.08,0-.14-.07-.13-.14l.02-1.03h0c0-.08.07-.14.14-.13l1.32.02c.08,0,.14.07.13.14ZM27.66,37.95h0c0-.12.1-.21.21-.2l1.2.02h0c.12,0,.21.1.2.21v.4h0c0,.12-.1.21-.21.2l-1.2-.02h0c-.12,0-.21-.1-.2-.21v-.4h0ZM27.25,43.21l-.02.49c0,.12-.1.21-.23.21l-1.23-.05h0c-.12,0-.21-.1-.21-.23l.02-.49c0-.12.1-.21.23-.21l1.23.05h0c.12,0,.21.1.21.23ZM25.59,41.46h0c0-.09.07-.15.15-.15l1.21-.03c.09,0,.15.07.15.15l.02.65h0c0,.09-.07.15-.15.15l-1.21.03c-.09,0-.15-.07-.15-.15l-.02-.65ZM27.16,40.32c0,.14-.11.26-.25.26l-1.07.02h0c-.14,0-.26-.11-.26-.25l-.02-.91c0-.14.11-.26.25-.26l1.07-.02h0c.14,0,.26.11.26.25l.02.91ZM25.54,37.93h0c0-.14.12-.25.26-.25l1.05.04h0c.14,0,.25.12.25.26v.26h-.01c0,.14-.12.25-.26.25l-1.05-.04h0c-.14,0-.25-.12-.25-.26v-.26ZM25.51,44.84c.34-.36.86-.41,1.58-.15.15.06.25.12.29.19.06.1.14.17.25.2.15.04.31,0,.42-.11.01-.01.03-.03.05-.07.07-.1.18-.15.29-.15,1.11-.02,2.03.06,2.75.24.12.04.2.14.21.27,0,.16-.12.29-.28.3h-7.58c-.08,0-.14-.06-.14-.14v-.78h0c0-.07.06-.12.13-.12.89.04,1.49.15,1.78.36.08.06.19.04.26-.02h0ZM23.09,37.78c.01-.13.12-.23.26-.22l1.42.1h0c.13.01.23.12.22.26l-.02.35c-.01.13-.12.23-.26.22l-1.42-.1h0c-.13-.01-.23-.12-.22-.26l.02-.35ZM23.09,39.39h0c0-.16.14-.28.3-.27l1.31.07h0c.16,0,.28.14.27.3l-.04.86h0c0,.16-.14.28-.3.27l-1.31-.07h0c-.16,0-.28-.14-.27-.3l.04-.86ZM12.23,43.52l-1.45.06h0c-.08,0-.15-.07-.15-.15v-.5c0-.2.15-.37.36-.37l1.32-.06h0c.1,0,.18.08.18.18v.55c0,.15-.12.28-.27.29h0ZM12.88,41.5c0,.15-.12.26-.26.27l-1.4.02s-.05,0-.07-.02c-.07-.04-.1-.13-.06-.2l.31-.56c.04-.08.12-.13.21-.13h1.07c.1-.01.18.07.18.18v.44h0,0ZM14.87,43.28h0c0,.15-.12.28-.28.28h-1.48s-.06,0-.07-.02c-.07-.04-.1-.13-.06-.21l.34-.58c.04-.08.13-.13.23-.13h1.14c.11,0,.2.09.2.2v.47h0ZM15.23,41.15l-.2.59c-.04.12-.15.21-.27.22-.39.04-.64.04-.75.02-.26-.04-.45-.26-.47-.53-.01-.31.23-.56.53-.58l.92-.04s.06,0,.09.01c.12.04.19.17.15.29ZM17.36,43.49c0,.15-.13.27-.28.26l-1.34-.04h0c-.15,0-.27-.13-.26-.28l.02-.5c0-.15.13-.27.28-.26l1.34.04h0c.15,0,.27.13.26.28l-.02.5ZM19.84,45.25h0c0,.11-.09.2-.2.19h-1.12c-.43,0-.77-.21-.77-.45v-.16h0c0-.25.35-.44.78-.44h1.12c.1,0,.19.09.19.2v.66h0ZM19.97,43.59h0c0,.1-.09.19-.2.19l-1.62-.04c-.1,0-.19-.09-.19-.2v-.66h.01c0-.1.09-.19.2-.19l1.62.04c.1,0,.19.09.19.2,0,0-.01.66-.01.66ZM20.98,37.45h0c0-.06.06-.1.12-.09l.99.09c.21.02.37.19.36.39l-.03.35h0c-.02.2-.21.33-.43.31l-.99-.09h0c-.06,0-.1-.06-.09-.12l.07-.84h0ZM20.8,39.3c0-.09.07-.15.15-.15l1.31.02h0c.09,0,.15.07.15.15v1.02c-.01.09-.08.15-.17.15l-1.31-.02h0c-.09,0-.15-.07-.15-.15v-1.02ZM20.66,41.35c0-.12.1-.21.21-.2l1.44.03c.12,0,.21.1.2.21v.58c-.01.12-.11.21-.23.2l-1.44-.03c-.12,0-.21-.1-.2-.21v-.58ZM20.56,42.94c0-.06.05-.11.11-.11h1.8c.06,0,.11.06.11.12v.68c0,.06-.05.11-.11.11h-1.8c-.06,0-.11-.06-.11-.12v-.68ZM20.69,44.44h1.75c.09,0,.15.07.16.15v.71c0,.09-.07.15-.15.16h-1.75c-.09,0-.15-.07-.16-.15v-.71c0-.09.07-.15.15-.16ZM18.72,37.84c.02-.38.26-.68.55-.67l.6.03c.28.01.5.34.48.72l-.02.48h0c0,.06-.05.1-.1.1l-1.43-.07c-.06,0-.09-.05-.09-.1l.02-.48h0ZM18.48,39.29c0-.09.09-.16.17-.15l1.37.09h0c.09,0,.16.09.15.17l-.05.78c0,.09-.09.16-.17.15l-1.37-.09h0c-.09,0-.16-.09-.15-.17l.05-.78ZM18.41,40.97l1.4.05c.13,0,.23.11.22.24l-.02.58h0c0,.13-.11.23-.24.22l-1.4-.05c-.13,0-.23-.11-.22-.24l.02-.58h0c0-.13.11-.23.24-.22ZM16.41,38.08l.18-.64c.04-.13.15-.23.28-.25.41-.06.67-.07.8-.06.28.04.48.26.51.53.03.32-.21.61-.54.64l-.97.09s-.07,0-.1-.01c-.13-.04-.2-.18-.17-.31h0ZM16.12,39.18h0c0-.09.09-.16.18-.15l1.34.11c.09,0,.16.09.15.18l-.06.75h0c0,.09-.09.16-.18.15l-1.34-.11c-.09,0-.16-.09-.15-.18l.06-.75ZM17.34,40.88h0c.11,0,.2.1.19.21l-.05.77h0c0,.11-.1.2-.21.19l-1.3-.09h0c-.11,0-.2-.1-.19-.21l.05-.77h0c0-.11.1-.2.21-.19l1.3.09ZM14.35,38.11l.11-.61c.02-.12.11-.22.23-.25.37-.1.61-.14.74-.14.25,0,.47.19.52.44.06.29-.13.59-.42.65l-.89.18s-.06,0-.09,0c-.12-.02-.21-.15-.18-.27h0ZM14.31,39.12c.37-.06.61-.09.74-.07.26.02.47.23.5.49.02.3-.19.56-.49.59l-.89.1h-.09c-.12-.03-.2-.16-.17-.28l.15-.59c.03-.12.13-.21.25-.23h0ZM12.35,38.03l.13-.61c.02-.12.12-.22.25-.25.38-.08.63-.12.75-.11.28,0,.5.21.53.49.04.3-.18.58-.48.61l-.91.15h-.09c-.12-.03-.2-.15-.18-.28h0ZM12.1,39.09l1.16-.04h.05c.09.02.15.12.13.21l-.17.67c-.03.13-.14.22-.28.23l-1.24.04s-.07,0-.1-.02c-.09-.05-.13-.17-.08-.26l.41-.77s.07-.08.12-.08h0ZM10.12,38.07c.4-.69.92-1.02,1.56-1.01.02,0,.04,0,.06,0,.12.03.18.15.15.27l-.18.69c-.04.16-.18.26-.35.26h-1.1s-.06,0-.08-.02c-.07-.04-.09-.13-.05-.2h0ZM9.37,39.9l.2-.66c.04-.13.15-.21.29-.21l1.24.02s.06.01.09.02c.09.06.12.17.07.26l-.45.74s-.08.07-.13.07l-1.15-.02s-.03,0-.05,0c-.09-.03-.14-.12-.11-.21ZM8.67,41.54l.48-.72s.08-.07.13-.07l1.16.07s.03,0,.05.01c.09.03.14.13.1.23l-.24.65c-.04.12-.17.21-.3.2l-1.24-.08s-.07-.01-.1-.04c-.09-.06-.1-.18-.04-.26h0ZM7.76,43.49l.53-.91c.03-.06.09-.09.15-.09h1.41s.04,0,.06,0c.11.03.18.15.14.26l-.24.82c-.04.15-.18.26-.34.26h-1.51s-.07-.01-.11-.03c-.11-.06-.15-.2-.09-.31h0Z"/>
    <path class="st1" d="M52.09,47.58c-.14-.68-.17-1.34-.09-1.97.03-.21.02-.43-.02-.64-.22-1.04-.47-1.81-.74-2.32-.61-1.15-.95-1.77-1.01-1.88-1.1-1.92-2.53-3.86-4.28-5.82-.13-.15-.31-.56-.5-1.22-.04-.15-.01-.31.09-.43l.08-.1c.1-.13.13-.32.08-.48-.28-.77-.66-1.25-1.15-1.45-.12-.05-.2-.17-.2-.31,0-.26-.02-.44-.07-.53-.08-.15-.21-.22-.37-.23-.31-.01-.48-.03-.51-.06-.01,0-.02-.02-.02-.02-.07-.08-.06-.2.01-.27.17-.15.25-.32.26-.53v-.03c-.01-.14-.13-.25-.28-.23l-.82.07s-.09,0-.13-.03c-.1-.07-.14-.2-.07-.31.12-.18.12-.33.02-.47-.07-.09-.17-.13-.28-.14-.67-.05-1.03-.36-1.07-.92-.01-.13-.1-.24-.22-.28-.56-.18-.93-.56-1.08-1.16-.02-.1-.09-.18-.18-.24l-.83-.48c-.15-.09-.34-.06-.46.06-.02.03-.04.05-.04.05-.11.12-.26.19-.43.19l-9.69.13h-.05l-2.83-.06c-3.02-.21-6.03-.21-9.05,0-.93.06-1.99.08-3.17.04-.12,0-.23.04-.32.11-.9.75-1.59,1.42-2.05,2-.11.14-.23.26-.37.37-1.71,1.32-3.06,2.53-4.07,3.62-.54.58-.29,1.27-.63,1.8-.14.23-.12.47.06.72.09.13.08.31-.04.43-.12.12-.55.86-1.29,2.22-.28.5-.73,1.23-1.36,2.18-.72,1.09-1.45,2.37-2.19,3.84-.45.88-.69,1.81-.73,2.8,0,.15.02.31.09.45.26.61.42,1.34.48,2.2,0,.03.01.06.02.1l.72,2.23c.02.07.06.13.1.18.54.61,1.22.95,2.05,1.01,1.58.11,2.45.16,2.59.15.78-.06,1.61-.02,2.48.11.13.02.28.02.41,0,.63-.09,1.33-.12,2.11-.1,2.57.08,4.58.17,6.01.25,4.33.27,8.22.01,12.8-.04.56,0,1.39-.22,2.05-.21,1.82.02,3.91-.02,6.26-.1,1.7-.06,3.33.11,5.07,0,.93-.06,2.02-.08,3.27-.07,1.59.02,3.16-.13,4.69-.45.32-.07.55-.36.54-.69-.02-.85.08-1.63.31-2.35.07-.23.09-.48.04-.72h-.01ZM.69,44.95c.43-1.34.92-2.44,1.47-3.3,1.94-3.05,3.19-5.17,3.77-6.33.17-.33.26-.87.29-1.63.06-1.65.99-2.81,2.72-2.64.21.02.4-.13.42-.34.01-.16-.07-.31-.21-.38l-.18-.1s-.06-.08-.04-.12c.01-.02.04-.04.06-.05.26-.04.72-.04,1.37,0,.16.01.29-.1.31-.26h0c.02-.31-.13-.51-.45-.61-.06-.02-.09-.08-.08-.14.03-.13.12-.21.25-.21.52-.02,1,.01,1.43.09.16.03.31-.07.34-.23.02-.1-.02-.21-.1-.28-.21-.18-.47-.26-.78-.25-.09,0-.15-.06-.16-.14,0-.06.03-.12.09-.15.51-.28,1.11-.37,1.81-.28.1.01.2-.06.21-.17,0-.06-.02-.12-.06-.17l-.43-.4c-.13-.12-.14-.32-.02-.46.06-.07.15-.1.25-.1,1.89,0,3.98-.06,6.27-.17,2.36-.11,5.07.11,7.34.13.63,0,1.03.02,1.2.03.86.07,1.9.1,3.11.06,2.53-.07,5.06-.12,7.61-.18.22,0,.43.07.59.23l.4.37c.08.07.09.2.01.28-.03.04-.08.06-.13.06l-1.3.12c-.17.01-.29.15-.3.32v.15c0,.13.1.25.23.25h.03l2.05-.18c.17-.01.32.07.41.21l.06.1c.04.07.02.16-.06.2-.02.01-.04.02-.06.02l-.73.06c-.19.02-.34.18-.35.37v.16c0,.14.1.26.24.26h.03l1.58-.13c.1-.01.18.06.19.16h0v.14c.02.06-.02.1-.07.11h-.01c-.39,0-.62.04-.7.15-.17.25-.11.42.17.54.15.06.35.06.62,0,.15-.04.29.06.32.2v.03c.06.49.46.74,1.2.73.26,0,.39.07.41.23,0,.09-.06.16-.15.17h-.02l-.58-.02c-.1,0-.19.08-.19.18,0,.03,0,.07.02.1l.12.2c.04.07.11.11.18.11l1.24.04c.11,0,.22.05.3.12l.44.4c.06.06.07.15.02.21-.03.04-.07.06-.12.05-3-.06-5.93-.15-8.8-.27-.89-.04-1.83.07-2.67-.03-1.35-.17-2.67-.23-3.94-.21-4.61.06-7,.1-7.16.11-2.08.14-4.25.15-6.5.01-2.48-.15-5.22-.16-8.25-.04-.14,0-.25.13-.25.27,0,.04.01.08.03.11l.07.13c.03.06.09.09.15.09l12.6.4c.06,0,.1,0,.16-.01.56-.1.94-.15,1.14-.15,3.63-.15,6.49-.17,8.59-.06,3.48.18,5.89.26,7.22.26,2.5,0,4.91.1,7.23.29.28.02.51.21.6.48.26.8.5,1.26,1.13,1.91,1.73,1.77,3.16,3.76,4.28,5.98.58,1.15,1.28,2.46,1.09,3.52-.08.43-.41.91-1.01,1.45-.23.21-.8.36-1.7.44-1.8.16-3.22.21-4.26.15-3.25-.18-7.46.12-9.82.26-4.38.25-8.46.15-12.25-.32-2.92-.36-4.24-.13-7.67.09-3.25.2-6.49-.16-9.76-.26-.68-.02-1.37-.08-2.07-.18-1.33-.18-1.69-.63-2.07-1.76-.06-.18-.06-.38,0-.56h0ZM50.87,50.77s-.05.01-.07.02c-1.88.3-3.66.4-5.35.31-.14,0-.28,0-.42.02-1.36.18-2.18.26-2.45.24-3.84-.21-6.31-.26-7.44-.12-.47.06-.86.07-1.18.05-2.55-.17-4.3.34-6.4.21-.78-.04-2.78-.03-6,.04-2.06.04-4.82-.01-8.28-.18-1.46-.07-3.28-.11-5.45-.13-2.24-.02-4.09-.14-5.56-.36-.23-.04-.4-.22-.42-.45l-.09-1.05c-.01-.1.06-.19.17-.2.03,0,.06,0,.09.01,1.7.62,4.64.07,6.55.53.25.06,1.18.07,2.81.05,2.27-.04,5.04-.04,8.32-.02,1.75.01,3.21.07,4.36.18,1.01.09,2.15.06,3.44-.09.88-.1,2.02-.13,3.43-.09,5.42.15,10.87,0,16.34-.42.1,0,.2,0,.29,0,.91.12,1.88.06,2.92-.19.24-.06.48.08.56.32l.21.66c.09.28-.06.58-.34.67ZM51.51,48.05c-.04.31-.34.56-.7.58-1.18.09-2.54.1-4.09.04-1.71-.07-3.33.29-4.95.33-4.34.1-8.35.15-12.02.14-1.41,0-2.67.06-3.77.18-1.9.22-3.69-.39-5.63-.18-.17.02-1.45-.01-3.86-.08-.28,0-1.57,0-3.87.02-4.15.04-7.39-.07-9.72-.32-.84-.09-1.5-.44-1.97-1.04-.04-.05-.02-.11.02-.15.02-.02.06-.02.08-.02,2.9.7,6.24.53,9.11.75,1.89.15,3.29.18,4.19.09,1.63-.17,5-.36,7.47-.17,3.36.26,6.01.4,7.94.42,1.82.02,5.29-.07,10.41-.27,1.55-.06,3.09-.07,4.61-.04,2.16.05,4.03-.07,5.88-.51.18-.04.31-.18.36-.35,0-.02.01-.04.02-.08.02-.1.13-.17.23-.14.04.01.07.03.1.06.15.18.2.41.15.71Z"/>
  </g>
  <g>
    <path class="st0" d="M13.29,60.72h3.04c.02.48.03.82.03,1,0,.72-.12,1.31-.34,1.75-.24.46-.69.78-1.37.96-.74.2-2.01.3-3.82.3-1.99,0-3.34-.03-4.03-.1-.89-.08-1.55-.23-1.97-.44-.51-.27-.86-.69-1.03-1.26-.14-.47-.21-1.56-.21-3.28,0-1.42.04-2.38.11-2.89.11-.75.4-1.29.87-1.62.36-.26.94-.44,1.73-.54.82-.1,2.3-.16,4.46-.16,1.21,0,2.1.02,2.65.08.81.08,1.4.23,1.77.47.46.29.75.7.87,1.26.09.39.13.83.13,1.35,0,.09,0,.28,0,.58h-3.04c-.02-.47-.08-.76-.18-.89-.11-.15-.45-.24-1.02-.28-.57-.04-1.26-.06-2.07-.06-1.06,0-1.79.03-2.19.09-.49.07-.79.33-.91.8-.09.37-.14.98-.14,1.81s.05,1.45.14,1.78c.12.42.44.67.97.74.42.06,1.14.08,2.15.08,1.23,0,2.06-.02,2.49-.07.4-.04.66-.19.76-.43.09-.2.13-.54.15-1h0Z"/>
    <path class="st0" d="M22.18,57.31c1.35,0,2.37.07,3.07.22.74.15,1.26.53,1.56,1.1.17.32.26.66.29,1.02.03.34.04.75.04,1.24,0,.96-.05,1.62-.14,2-.2.8-.68,1.34-1.45,1.59-.58.19-1.73.28-3.43.28-1.49,0-2.56-.07-3.22-.23-.78-.18-1.29-.6-1.54-1.26-.12-.31-.19-.64-.21-.98-.03-.42-.04-.88-.04-1.4,0-.89.06-1.51.17-1.86.25-.74.75-1.22,1.51-1.45.62-.18,1.75-.27,3.38-.27h.01ZM22.13,59.3c-.86,0-1.44.07-1.75.2-.25.11-.41.3-.5.57-.08.23-.12.58-.12,1.02,0,.5.05.85.14,1.04.13.27.44.45.91.53.33.06.78.1,1.34.1.94,0,1.56-.09,1.86-.27.2-.12.34-.31.41-.56.06-.2.08-.51.08-.92,0-.54-.06-.92-.18-1.13-.13-.25-.44-.4-.91-.49-.34-.06-.77-.09-1.27-.09Z"/>
    <path class="st0" d="M37.73,60.72h3.04c.02.48.03.82.03,1,0,.72-.12,1.31-.34,1.75-.24.46-.69.78-1.37.96-.74.2-2.01.3-3.82.3-1.99,0-3.34-.03-4.03-.1-.89-.08-1.55-.23-1.97-.44-.51-.27-.86-.69-1.03-1.26-.14-.47-.21-1.56-.21-3.28,0-1.42.04-2.38.11-2.89.11-.75.4-1.29.87-1.62.36-.26.94-.44,1.73-.54.82-.1,2.3-.16,4.46-.16,1.21,0,2.1.02,2.65.08.81.08,1.4.23,1.77.47.46.29.75.7.87,1.26.09.39.13.83.13,1.35,0,.09,0,.28,0,.58h-3.04c-.02-.47-.08-.76-.18-.89-.11-.15-.45-.24-1.02-.28-.57-.04-1.26-.06-2.07-.06-1.06,0-1.79.03-2.19.09-.49.07-.79.33-.91.8-.09.37-.14.98-.14,1.81s.05,1.45.14,1.78c.12.42.44.67.97.74.42.06,1.14.08,2.15.08,1.23,0,2.06-.02,2.49-.07.4-.04.66-.19.76-.43.09-.2.13-.54.15-1h0Z"/>
    <path class="st0" d="M46.63,57.31c1.35,0,2.37.07,3.07.22.74.15,1.26.53,1.56,1.1.17.32.26.66.29,1.02.03.34.04.75.04,1.24,0,.96-.05,1.62-.14,2-.2.8-.68,1.34-1.45,1.59-.58.19-1.73.28-3.43.28-1.49,0-2.56-.07-3.22-.23-.78-.18-1.29-.6-1.54-1.26-.12-.31-.19-.64-.21-.98-.03-.42-.04-.88-.04-1.4,0-.89.06-1.51.17-1.86.25-.74.75-1.22,1.51-1.45.62-.18,1.75-.27,3.38-.27h.01ZM46.58,59.3c-.86,0-1.44.07-1.75.2-.25.11-.41.3-.5.57-.08.23-.12.58-.12,1.02,0,.5.05.85.14,1.04.13.27.44.45.91.53.33.06.78.1,1.34.1.94,0,1.56-.09,1.86-.27.2-.12.34-.31.41-.56.06-.2.08-.51.08-.92,0-.54-.06-.92-.18-1.13-.13-.25-.44-.4-.91-.49-.34-.06-.77-.09-1.27-.09Z"/>
  </g>
</svg>