<?xml version="1.0" encoding="UTF-8"?>
<svg id="Layer_1" data-name="Layer 1" xmlns="http://www.w3.org/2000/svg" viewBox="0 0 84.57 31.18">
  <defs>
    <style>
      .cls-1 {
        fill: #231f20;
      }
    </style>
  </defs>
  <g>
    <path d="M9.74,7.83l-1.47,1.58h-3.54v-3.52h7.35L14.93.58l-.69-.58-2.34,1.87H.73v20.41l-.73,3.03.84.34,3.89-6.53v-6.58h2.02l-.46,1.64.85.34,3.33-6.17-.74-.53ZM7.67,11.63h-3.86v7.25l-2.21,3.71.05-.19V2.8h10.57l.84-.67-1.52,2.83H3.82v5.37h4.56l-.7,1.3Z"/>
    <path d="M13.91,10.46c-1.42,0-2.19,2.15-2.19,4.17,0,2.34.92,4.04,2.19,4.04,1.18,0,2.07-1.74,2.07-4.04,0-2.05-.77-4.17-2.07-4.17ZM13.91,17.74c-.6,0-1.27-1.28-1.27-3.12s.68-3.24,1.27-3.24c.39,0,1.14,1.26,1.14,3.24,0,1.88-.69,3.12-1.14,3.12Z"/>
    <path d="M34.11,16.57l4.36-5.63-1.53-1.53h-7.21l-1.09,3.99,1.91-.85h2.28l-3.21,4.02h-5.24l4.48-5.62-1.54-1.54h-7.2l-1.17,3.66c-.67-2.09-2.71-3.66-5.04-3.66-2.98,0-5.4,2.31-5.4,5.15s2.42,5.15,5.4,5.15,5.28-2.36,5.28-5.15c0-.42-.06-.83-.16-1.22l1.77-.79h2.3l-4.36,5.63,1.53,1.53h16.83l1.28-4.02-1.96.87h-2.3ZM13.91,18.79c-2.47,0-4.48-1.9-4.48-4.23s2.01-4.23,4.48-4.23,4.35,1.94,4.35,4.23-1.99,4.23-4.35,4.23ZM36.86,17.37l-.45,1.42h-15.77l-.69-.69,5.02-6.47h-4.37l-.26.12.45-1.42h6.14l.69.69-5.15,6.48h7.6l4.69-5.86h-4.39l-.31.14.39-1.44h6.12l.69.69-5.02,6.47h4.37l.26-.12Z"/>
    <polygon points="53.63 7.35 51.35 9.64 39.66 9.64 38.26 14.49 40.43 12.32 44.55 12.32 44.55 25.58 42.44 27.86 47.23 26.46 47.23 12.32 52.24 12.32 53.63 7.35"/>
    <path d="M60.07,20.36v-.89l-.43.78c-.47.85-1.88,3.39-6.49,2.81l5.96-4.29-.24-.19c-1.69-1.33-2.85-1.78-4.59-1.78-3.56,0-6.03,2.2-6.03,4.18,0,2.39,2.58,4.06,6.28,4.06,1.44,0,2.75-.36,3.71-1.01,1.2-.82,1.83-2.08,1.83-3.66ZM50.79,20.08c.67-.92,2.1-1.4,3.33-1.4.5,0,.97.08,1.34.24l-4.25,3.13c-.54-.48-1-1.18-.42-1.97Z"/>
    <path d="M74.37,20.98l7.71-7.71-7.43,3.57-2.33,2.45-2.14-2.25,3.96-3.8-7.51,3.6-2.33,2.45-2.37-2.49h-3.73l4.05,4.18-4.06,4.06h3.74l2.37-2.37,2.37,2.37h3.28l2.37-2.37,4.93,4.93,7.33,3.59-10.2-10.2ZM70.38,20.98l-1.9,1.9-1.9-1.9,1.9-1.9,1.9,1.9Z"/>
  </g>
  <g>
    <path class="cls-1" d="M21.41,2.14l1.89,2.68,1.9-2.68h3.49v4.12h-1.91l.05-3.09h-.32l-2.4,3.09h-1.61l-2.4-3.09h-.34l.05,3.09h-1.91V2.14h3.51Z"/>
    <path class="cls-1" d="M35.93,5.57h-4.21l-.54.7h-2.21l3.37-4.12h3.02l3.33,4.12h-2.2l-.54-.7ZM34.02,3.1h-.38l-1.23,1.56h2.84l-1.23-1.56Z"/>
    <path class="cls-1" d="M38.97,2.14h4.59c1.62,0,1.84,0,2.39.08.63.08,1.05.32,1.24.7.14.29.18.56.18,1.22,0,1.08-.14,1.5-.61,1.77-.49.28-1.05.35-3.2.35h-4.59V2.14ZM43.58,5.22c1.76,0,1.88-.06,1.88-1,0-.51-.07-.74-.26-.87-.2-.15-.46-.17-1.64-.17h-2.68v2.04h2.7Z"/>
    <path class="cls-1" d="M55.17,2.14v.97h-5.14v.6h4.88v.91h-4.88v.66h5.17v.99h-7.08V2.14h7.04Z"/>
    <path class="cls-1" d="M58.21,2.14h4.57c2.11,0,2.18,0,2.53.12.47.14.65.41.65.96,0,.59-.22.83-.86.95.84.09,1.1.33,1.1,1,0,.57-.23.87-.76,1.01-.22.05-.58.08-1.16.09-.08,0-.57,0-1.49,0h-4.58V2.14ZM62.78,3.77c.66,0,.94-.01,1.07-.04.15-.04.23-.14.23-.3,0-.17-.09-.26-.28-.29-.1-.02-.12-.02-1.02-.02h-2.73v.66h2.73ZM62.79,5.28q1.14,0,1.28-.04c.17-.04.25-.14.25-.32s-.09-.27-.29-.31q-.11-.02-1.24-.02h-2.74v.69h2.74Z"/>
    <path class="cls-1" d="M68.65,2.14l2.07,1.65,1.99-1.65h2.53l-3.48,2.66v1.46h-2v-1.46l-3.65-2.66h2.55Z"/>
  </g>
</svg>