<?xml version="1.0" encoding="UTF-8"?>
<svg id="svg53" xmlns="http://www.w3.org/2000/svg" viewBox="0 0 127.56 40.88">
  <defs>
    <style>
      .cls-1 {
        fill-rule: evenodd;
      }
    </style>
  </defs>
  <rect id="rect2" x="51.37" y="8.5" width="25.18" height=".43"/>
  <rect id="rect4" x="55.05" y="6.04" width=".43" height="26.14"/>
  <rect id="rect6" x="63.99" width=".43" height="13.63"/>
  <rect id="rect8" x="63.99" y="22.26" width=".43" height="15.8"/>
  <rect id="rect10" x="52.66" y="26.91" width="28.05" height=".43"/>
  <rect id="rect12" x="73.28" y="6.24" width=".43" height="34.65"/>
  <rect id="rect14" x="62.08" y="35.89" width="24.28" height=".43"/>
  <rect id="rect16" x="82.67" y="30.76" width=".43" height="9.58"/>
  <rect id="rect18" x="45.61" y="15.93" width=".43" height="5.68"/>
  <rect id="rect20" x="68.51" y="17.78" width="11.25" height=".43"/>
  <rect id="rect22" x="45.12" y="17.78" width="14.78" height=".43"/>
  <path id="path26" class="cls-1" d="M64.15,13.32h.06s.03,0,.03,0h.03s.03,0,.03,0h.03s.03,0,.03,0h.03s.03,0,.03,0h.03s.06,0,.06,0h.03s.03,0,.03,0h.03s.03,0,.03,0h.03s.03,0,.03,0h.03s.03,0,.03,0h.03s.06.01.06.01h.06s.03.01.03.01h.03s.03.01.03.01h.03s.03.01.03.01h.03s.03.01.03.01h.03s.03.01.03.01h.03s.03.01.03.01h.03s.03.01.03.01h.03s.06.02.06.02h.03s.06.02.06.02l.06.02h.03s.05.03.05.03h.03s.03.02.03.02h.03s.05.03.05.03h.03s.08.04.08.04h.03s.03.02.03.02h.03s.03.02.03.02h.03s.03.02.03.02h.03s.03.02.03.02h.03s.03.02.03.02h.03s.05.04.05.04h.03s.03.02.03.02l.05.03h.03s.05.04.05.04h.02s.02.03.02.03h.02s.02.03.02.03h.02s.02.03.02.03h.02s.02.03.02.03h.02s.02.03.02.03h.02s.02.03.02.03l.02.02.02.02.05.03.02.02.02.02.05.03.02.02.02.02.02.02.02.02.02.02.02.02.02.02.02.02.02.02.02.02.02.02.02.02.04.04.02.02.04.04.02.02.02.02.04.04.02.02.02.02.04.04.02.02.02.02.02.02.02.02.04.04.04.04.02.02.02.02.02.02.02.02.02.02.02.02.02.02.02.02.02.02.02.02.04.04.02.02.04.04.02.02.02.02.03.04.02.02.02.02.02.02.03.05.02.02.02.02.03.05.02.02.02.02.03.05.02.02.02.02.03.05.03.05v.02s.03.02.03.02v.02s.04.05.04.05v.02s.03.02.03.02v.02s.03.03.03.03v.03s.03.03.03.03l.03.05v.03s.02.03.02.03v.03s.02.03.02.03v.03s.02.03.02.03v.03s.03.05.03.05v.03s.02.03.02.03v.03s.02.03.02.03l.02.05v.03s.02.03.02.03l.02.05v.03s.02.03.02.03v.03s.02.03.02.03v.03s.02.03.02.03v.03s.02.03.02.03v.03s.02.03.02.03v.03s.02.03.02.03v.03s.01.03.01.03v.03s.01.03.01.03v.03s.02.06.02.06v.03s.02.06.02.06v.03s.02.06.02.06v.03s.01.03.01.03v.03s0,.03,0,.03v.06s.02.06.02.06v.03s0,.03,0,.03v.03s0,.03,0,.03v.03s0,.03,0,.03v.03s0,.03,0,.03v.03s0,.03,0,.03v.03s0,.03,0,.03v.03s0,.06,0,.06v.03s0,.06,0,.06v.06s0,.06,0,.06v.03s0,.03,0,.03v.03s0,.03,0,.03v.03s0,.03,0,.03v.03s0,.03,0,.03v.03s0,.03,0,.03v.03s0,.03,0,.03v.03s0,.03,0,.03v.03s0,.03,0,.03v.03s0,.03,0,.03v.03s0,.03,0,.03v.03s0,.03,0,.03v.03s0,.03,0,.03v.03s0,.03,0,.03v.03s-.01.03-.01.03v.03s-.01.03-.01.03v.03s-.01.03-.01.03v.03s-.01.03-.01.03v.03s-.01.03-.01.03v.03s-.01.03-.01.03v.03s-.01.03-.01.03v.03s-.02.03-.02.03v.03s-.02.03-.02.03v.03s-.02.03-.02.03v.03s-.02.03-.02.03v.03s-.02.03-.02.03v.03s-.02.03-.02.03v.03s-.02.03-.02.03v.03s-.02.03-.02.03v.03s-.02.03-.02.03v.03s-.02.03-.02.03v.03s-.02.03-.02.03v.03s-.02.03-.02.03v.03s-.02.03-.02.03v.03s-.02.03-.02.03v.03s-.02.03-.02.03v.03s-.02.03-.02.03v.03s-.03.03-.03.03v.03s-.03.03-.03.03v.02s-.03.02-.03.02v.02s-.03.02-.03.02v.02s-.03.02-.03.02v.02s-.03.02-.03.02v.02s-.03.02-.03.02v.02s-.03.02-.03.02v.02s-.03.02-.03.02l-.02.02-.02.02-.02.02-.02.02-.02.02-.02.02-.02.02-.02.02-.02.02-.02.02-.02.02-.02.02-.02.02-.02.02-.02.02-.02.02-.02.02-.02.02-.02.02-.02.02-.02.02-.02.02-.02.02-.02.02-.02.02-.02.02-.02.02-.02.02-.02.02-.02.02-.02.02-.02.02-.02.02-.02.02-.02.02-.02.02-.02.02-.02.02-.02.02-.02.02-.02.02-.02.02-.02.02-.02.02-.02.02-.02.02-.02.02-.02.02-.02.02-.02.02-.02.02-.02.02-.02.02-.02.02-.02.02-.02.02-.02.02-.02.02-.02.02-.02.02-.02.02-.02.02-.02.02-.02.02-.02.02-.02.02-.02.02-.02.02-.02.02-.02.02-.02.02-.02.02-.02.02-.02.02h-.02s-.02.03-.02.03h-.02s-.02.03-.02.03h-.02s-.02.03-.02.03h-.02s-.02.03-.02.03h-.02s-.02.03-.02.03h-.02s-.02.03-.02.03h-.02s-.03.03-.03.03h-.03s-.03.03-.03.03h-.03s-.03.03-.03.03h-.03s-.03.02-.03.02h-.03s-.03.02-.03.02h-.03s-.03.02-.03.02h-.03s-.03.02-.03.02h-.03s-.03.02-.03.02h-.03s-.03.02-.03.02h-.03s-.03.02-.03.02h-.03s-.03.02-.03.02h-.03s-.03.02-.03.02h-.03s-.03.02-.03.02h-.03s-.03.02-.03.02h-.03s-.03.02-.03.02h-.03s-.03.02-.03.02h-.03s-.03.02-.03.02h-.03s-.03.02-.03.02h-.03s-.03.02-.03.02h-.03s-.03.01-.03.01h-.03s-.03.01-.03.01h-.03s-.03.01-.03.01h-.03s-.03.01-.03.01h-.03s-.03.01-.03.01h-.03s-.03.01-.03.01h-.03s-.03.01-.03.01h-.03s-.03,0-.03,0h-.03s-.03,0-.03,0h-.03s-.03,0-.03,0h-.03s-.03,0-.03,0h-.03s-.03,0-.03,0h-.03s-.03,0-.03,0h-.03s-.03,0-.03,0h-.03s-.03,0-.03,0h-.03s-.03,0-.03,0h-.03s-.03,0-.03,0h-.03s-.03,0-.03,0h-.03s-.03,0-.03,0h-.03s-.03,0-.03,0h-.03s-.03,0-.03,0h-.03s-.03,0-.03,0h-.03s-.03,0-.03,0h-.03s-.03,0-.03,0h-.03s-.03,0-.03,0h-.03s-.03,0-.03,0h-.03s-.03,0-.03,0h-.03s-.03,0-.03,0h-.03s-.03,0-.03,0h-.03s-.03,0-.03,0h-.03s-.03,0-.03,0h-.03s-.03,0-.03,0h-.03s-.03,0-.03,0h-.03s-.03,0-.03,0h-.03s-.03-.01-.03-.01h-.03s-.03-.01-.03-.01h-.03s-.03-.01-.03-.01h-.03s-.03-.01-.03-.01h-.03s-.03-.01-.03-.01h-.03s-.03-.01-.03-.01h-.03s-.03-.01-.03-.01h-.03s-.03-.02-.03-.02h-.03s-.03-.02-.03-.02h-.03s-.03-.02-.03-.02h-.03s-.03-.02-.03-.02h-.03s-.03-.02-.03-.02h-.03s-.03-.02-.03-.02h-.03s-.03-.02-.03-.02h-.03s-.03-.02-.03-.02h-.03s-.03-.02-.03-.02h-.03s-.03-.02-.03-.02h-.03s-.03-.02-.03-.02h-.03s-.03-.02-.03-.02h-.03s-.03-.02-.03-.02h-.03s-.03-.02-.03-.02h-.03s-.03-.02-.03-.02h-.03s-.03-.02-.03-.02h-.03s-.03-.03-.03-.03h-.03s-.03-.03-.03-.03h-.02s-.02-.03-.02-.03h-.02s-.02-.03-.02-.03h-.02s-.02-.03-.02-.03h-.02s-.02-.03-.02-.03h-.02s-.02-.03-.02-.03h-.02s-.02-.03-.02-.03h-.02s-.02-.03-.02-.03l-.02-.02-.02-.02-.02-.02-.02-.02-.02-.02-.02-.02-.02-.02-.02-.02-.02-.02-.02-.02-.02-.02-.02-.02-.02-.02-.02-.02-.02-.02-.02-.02-.02-.02-.02-.02-.02-.02-.02-.02-.02-.02-.02-.02-.02-.02-.02-.02-.02-.02-.02-.02-.02-.02-.02-.02-.02-.02-.02-.02-.02-.02-.02-.02-.02-.02-.02-.02-.02-.02-.02-.02-.02-.02-.02-.02-.02-.02-.02-.02-.02-.02-.02-.02-.02-.02-.02-.02-.02-.02-.02-.02-.02-.02-.02-.02-.02-.02-.02-.02-.02-.02-.02-.02-.02-.02-.02-.02-.02-.02-.02-.02-.02-.02-.02-.02-.02-.02-.02-.02-.02-.02-.02-.02-.02-.02-.02-.02-.02-.02-.02-.02-.02-.02-.02-.02-.02-.02-.02-.02-.02-.02-.02-.02-.02-.02-.02-.02-.02-.02v-.02s-.03-.02-.03-.02v-.02s-.03-.02-.03-.02v-.02s-.03-.02-.03-.02v-.02s-.03-.02-.03-.02v-.02s-.03-.02-.03-.02v-.02s-.03-.02-.03-.02v-.02s-.03-.03-.03-.03v-.03s-.03-.03-.03-.03v-.03s-.02-.03-.02-.03v-.03s-.02-.03-.02-.03v-.03s-.02-.03-.02-.03v-.03s-.02-.03-.02-.03v-.03s-.02-.03-.02-.03v-.03s-.02-.03-.02-.03v-.03s-.02-.03-.02-.03v-.03s-.02-.03-.02-.03v-.03s-.02-.03-.02-.03v-.03s-.02-.03-.02-.03v-.03s-.02-.03-.02-.03v-.03s-.02-.03-.02-.03v-.03s-.02-.03-.02-.03v-.03s-.02-.03-.02-.03v-.03s-.02-.03-.02-.03v-.03s-.02-.03-.02-.03v-.03s-.01-.03-.01-.03v-.03s-.01-.03-.01-.03v-.03s-.01-.03-.01-.03v-.03s-.01-.03-.01-.03v-.03s-.01-.03-.01-.03v-.03s-.01-.03-.01-.03v-.03s-.01-.03-.01-.03v-.03s-.01-.03-.01-.03v-.03s0-.03,0-.03v-.03s0-.03,0-.03v-.03s0-.03,0-.03v-.03s0-.03,0-.03v-.03s0-.03,0-.03v-.03s0-.03,0-.03v-.03s0-.03,0-.03v-.03s0-.03,0-.03v-.03s0-.03,0-.03v-.03s0-.03,0-.03v-.03s0-.03,0-.03v-.03s0-.03,0-.03v-.03s0-.03,0-.03v-.06s0-.03,0-.03v-.03s0-.03,0-.03v-.03s0-.03,0-.03v-.03s0-.03,0-.03v-.03s0-.03,0-.03v-.03s0-.03,0-.03v-.03s0-.03,0-.03v-.03s0-.03,0-.03v-.03s0-.03,0-.03v-.03s0-.03,0-.03v-.03s0-.03,0-.03v-.03s0-.03,0-.03v-.03s0-.03,0-.03v-.03s.01-.03.01-.03v-.03s.01-.03.01-.03v-.03s.01-.03.01-.03v-.03s.01-.03.01-.03v-.03s.01-.03.01-.03v-.03s.01-.03.01-.03v-.03s.01-.03.01-.03v-.03s.02-.03.02-.03v-.03s.02-.03.02-.03v-.03s.02-.03.02-.03v-.03s.02-.03.02-.03v-.03s.02-.03.02-.03v-.03s.02-.03.02-.03v-.03s.02-.03.02-.03v-.03s.02-.03.02-.03v-.03s.02-.03.02-.03v-.03s.02-.03.02-.03v-.03s.02-.03.02-.03v-.03s.02-.03.02-.03v-.03s.02-.03.02-.03v-.03s.02-.03.02-.03v-.03s.02-.03.02-.03v-.03s.02-.03.02-.03v-.03s.03-.03.03-.03v-.03s.03-.03.03-.03v-.03s.03-.02.03-.02v-.02s.03-.02.03-.02v-.02s.03-.02.03-.02v-.02s.03-.02.03-.02v-.02s.03-.02.03-.02v-.02s.03-.02.03-.02v-.02s.03-.02.03-.02l.02-.02.02-.02.02-.02.02-.02.02-.02.02-.02.02-.02.02-.02.02-.02.02-.02.02-.02.02-.02.02-.02.02-.02.02-.02.02-.02.02-.02.02-.02.02-.02.02-.02.02-.02.02-.02.02-.02.02-.02.02-.02.02-.02.02-.02.02-.02.02-.02.02-.02.02-.02.02-.02.02-.02.02-.02.02-.02.02-.02.02-.02.02-.02.02-.02.02-.02.02-.02.02-.02.02-.02.02-.02.02-.02.02-.02.02-.02.02-.02.02-.02.02-.02.02-.02.02-.02.02-.02.02-.02.02-.02.02-.02.02-.02.02-.02.02-.02.02-.02.02-.02.02-.02.02-.02.02-.02.02-.02.02-.02.02-.02.02-.02.02-.02.02-.02.02-.02.02-.02.02-.02.02-.02.02-.02h.02s.02-.03.02-.03h.02s.02-.03.02-.03h.02s.02-.03.02-.03h.02s.02-.03.02-.03h.02s.02-.03.02-.03h.02s.02-.03.02-.03h.02s.03-.03.03-.03h.03s.03-.03.03-.03h.03s.03-.02.03-.02h.03s.03-.02.03-.02h.03s.03-.02.03-.02h.03s.03-.02.03-.02h.03s.03-.02.03-.02h.03s.03-.02.03-.02h.03s.03-.02.03-.02h.03s.03-.02.03-.02h.03s.03-.02.03-.02h.03s.03-.02.03-.02h.03s.03-.02.03-.02h.03s.03-.02.03-.02h.03s.03-.02.03-.02h.03s.03-.02.03-.02h.03s.03-.02.03-.02h.03s.03-.02.03-.02h.03s.03-.01.03-.01h.03s.03-.01.03-.01h.03s.03-.01.03-.01h.03s.03-.01.03-.01h.03s.03-.01.03-.01h.03s.03-.01.03-.01h.03s.03-.01.03-.01h.03s.03,0,.03,0h.03s.03,0,.03,0h.03s.03,0,.03,0h.03s.03,0,.03,0h.03s.03,0,.03,0h.03s.03,0,.03,0h.03s.03,0,.03,0h.03s.03,0,.03,0h.03s.03,0,.03,0h.03s.03,0,.03,0h.03s.03,0,.03,0h.03s.03,0,.03,0h.03s.03,0,.03,0h.06s.03,0,.03,0ZM64.1,13.86h-.03s-.03,0-.03,0h-.03s-.03,0-.03,0h-.03s-.03,0-.03,0h-.03s-.03,0-.03,0h-.03s-.03,0-.03,0h-.03s-.03,0-.03,0h-.03s-.03,0-.03,0h-.03s-.03,0-.03,0h-.03s-.03,0-.03,0h-.03s-.03,0-.03,0h-.03s-.03,0-.03,0h-.03s-.03,0-.03,0h-.03s-.03,0-.03,0h-.03s-.03,0-.03,0h-.03s-.03,0-.03,0h-.03s-.03.01-.03.01h-.03s-.03.01-.03.01h-.02s-.02.01-.02.01h-.02s-.02.01-.02.01h-.02s-.02.01-.02.01h-.02s-.02.01-.02.01h-.02s-.02.01-.02.01h-.02s-.02.01-.02.01h-.02s-.02.02-.02.02h-.02s-.02.02-.02.02h-.02s-.02.02-.02.02h-.02s-.02.02-.02.02h-.02s-.02.02-.02.02h-.02s-.02.02-.02.02h-.02s-.02.02-.02.02h-.02s-.02.02-.02.02h-.02s-.02.02-.02.02h-.02s-.02.02-.02.02h-.02s-.02.02-.02.02h-.02s-.02.02-.02.02h-.02s-.02.02-.02.02h-.02s-.02.02-.02.02h-.02s-.02.02-.02.02h-.02s-.02.02-.02.02h-.02s-.02.02-.02.02h-.02s-.02.02-.02.02h-.02s-.02.02-.02.02h-.02s-.02.03-.02.03h-.02s-.02.03-.02.03h-.02s-.02.03-.02.03h-.02s-.02.03-.02.03h-.02s-.02.03-.02.03h-.02s-.02.03-.02.03h-.02s-.02.03-.02.03h-.02s-.02.03-.02.03h-.02s-.02.03-.02.03h-.02s-.02.03-.02.03l-.02.02-.02.02-.02.02-.02.02-.02.02-.02.02-.02.02-.02.02-.02.02-.02.02-.02.02-.02.02-.02.02-.02.02-.02.02-.02.02-.02.02-.02.02-.02.02-.02.02-.02.02-.02.02-.02.02-.02.02-.02.02-.02.02-.02.02-.02.02-.02.02-.02.02-.02.02-.02.02-.02.02-.02.02-.02.02-.02.02-.02.02-.02.02-.02.02-.02.02-.02.02-.02.02-.02.02-.02.02-.02.02-.02.02-.02.02v.02s-.03.02-.03.02v.02s-.03.02-.03.02v.02s-.03.02-.03.02v.02s-.03.02-.03.02v.02s-.03.02-.03.02v.02s-.03.02-.03.02v.02s-.03.02-.03.02v.02s-.03.02-.03.02v.02s-.03.02-.03.02v.02s-.03.02-.03.02v.02s-.02.02-.02.02v.02s-.02.02-.02.02v.02s-.02.02-.02.02v.02s-.02.02-.02.02v.02s-.02.02-.02.02v.02s-.02.02-.02.02v.02s-.02.02-.02.02v.02s-.02.02-.02.02v.02s-.02.02-.02.02v.02s-.02.02-.02.02v.02s-.02.02-.02.02v.02s-.02.02-.02.02v.02s-.02.02-.02.02v.02s-.02.02-.02.02v.02s-.02.02-.02.02v.02s-.02.02-.02.02v.02s-.02.02-.02.02v.02s-.02.02-.02.02v.02s-.01.02-.01.02v.02s-.01.02-.01.02v.02s-.01.02-.01.02v.02s-.01.02-.01.02v.02s-.01.02-.01.02v.02s-.01.02-.01.02v.03s-.01.02-.01.02v.03s-.01.03-.01.03v.03s-.01.03-.01.03v.03s0,.03,0,.03v.03s0,.03,0,.03v.03s0,.03,0,.03v.03s0,.03,0,.03v.03s0,.03,0,.03v.03s0,.03,0,.03v.03s0,.03,0,.03v.03s0,.03,0,.03v.03s0,.03,0,.03v.03s0,.03,0,.03v.03s0,.03,0,.03v.03s0,.03,0,.03v.03s0,.03,0,.03v.03s0,.03,0,.03v.03s0,.05,0,.05v.05s0,.03,0,.03v.03s0,.05,0,.05v.03s0,.03,0,.03v.03s0,.03,0,.03v.03s0,.03,0,.03v.05s0,.03,0,.03v.03s0,.03,0,.03v.03s0,.03,0,.03v.03s0,.03,0,.03v.03s0,.03,0,.03v.05s.01.03.01.03v.03s0,.03,0,.03v.03s.01.05.01.05v.03s.01.03.01.03v.03s.02.05.02.05v.02s.01.02.01.02v.02s.01.02.01.02v.02s.01.02.01.02v.02s.01.02.01.02v.02s.01.02.01.02v.02s.02.02.02.02v.02s.02.02.02.02v.02s.03.07.03.07v.02s.02.02.02.02v.02s.02.02.02.02v.02s.02.02.02.02v.02s.03.05.03.05l.02.05v.02s.02.02.02.02l.02.05v.02s.02.02.02.02l.02.04v.02s.02.02.02.02v.02s.02.02.02.02v.02s.02.02.02.02v.02s.02.02.02.02v.02s.02.02.02.02v.02s.03.02.03.02v.02s.04.04.04.04l.03.04v.02s.04.04.04.04v.02s.03.02.03.02v.02s.03.02.03.02l.04.06v.02s.03.02.03.02v.02s.03.02.03.02l.02.02.05.06.02.02.02.02.02.02.02.02.02.02.02.02.03.04.03.04.02.02.02.02.02.02.02.02.02.02.02.02.02.02.02.02.04.04.02.02.04.03.02.02.02.02.02.02.06.05.02.02.02.02.02.02.04.03.02.02.02.02.02.02.04.03.02.02.04.03h.02s.02.03.02.03h.02s.04.04.04.04h.02s.02.03.02.03h.02s.02.03.02.03h.02s.02.03.02.03h.02s.02.03.02.03h.02s.04.04.04.04l.04.03h.02s.02.03.02.03h.02s.04.04.04.04l.04.02.04.02h.02s.04.03.04.03h.02s.02.02.02.02h.02s.02.02.02.02l.05.02h.02s.02.02.02.02h.02s.02.02.02.02h.02s.02.02.02.02h.02s.02.02.02.02l.05.02h.02s.02.02.02.02h.02s.02.02.02.02h.02s.02.02.02.02l.05.02h.02s.02.02.02.02l.05.02h.02s.02.01.02.01h.02s.02.01.02.01h.02s.02.01.02.01h.02s.02.01.02.01h.02s.02.01.02.01h.02s.02.01.02.01h.03s.03.01.03.01h.03s.03.01.03.01h.05s.03.01.03.01h.03s.05.01.05.01h.05s.03.01.03.01h.05s.05.01.05.01h.03s.03,0,.03,0h.05s.05,0,.05,0h.03s.03,0,.03,0h.05s.05,0,.05,0h.03s.03,0,.03,0h.03s.03,0,.03,0h.03s.05,0,.05,0h.03s.03,0,.03,0h.03s.03,0,.03,0h.03s.03,0,.03,0h.03s.03,0,.03,0h.03s.03,0,.03,0h.03s.03,0,.03,0h.03s.03,0,.03,0h.03s.03,0,.03,0h.03s.03,0,.03,0h.03s.03,0,.03,0h.03s.03,0,.03,0h.03s.03,0,.03,0h.03s.03,0,.03,0h.03s.03,0,.03,0h.03s.03,0,.03,0h.03s.03-.01.03-.01h.02s.03-.01.03-.01h.02s.03-.01.03-.01h.02s.02-.01.02-.01h.02s.02-.01.02-.01h.02s.02-.01.02-.01h.02s.02-.01.02-.01h.02s.02-.01.02-.01h.02s.02-.02.02-.02h.02s.02-.02.02-.02h.02s.02-.02.02-.02h.02s.02-.02.02-.02h.02s.02-.02.02-.02h.02s.02-.02.02-.02h.02s.02-.02.02-.02h.02s.02-.02.02-.02h.02s.02-.02.02-.02h.02s.02-.02.02-.02h.02s.02-.02.02-.02h.02s.02-.02.02-.02h.02s.02-.02.02-.02h.02s.02-.02.02-.02h.02s.02-.02.02-.02h.02s.02-.02.02-.02h.02s.02-.02.02-.02h.02s.02-.02.02-.02h.02s.02-.02.02-.02h.02s.02-.03.02-.03h.02s.02-.03.02-.03h.02s.02-.03.02-.03h.02s.02-.03.02-.03h.02s.02-.03.02-.03h.02s.02-.03.02-.03h.02s.02-.03.02-.03h.02s.02-.03.02-.03h.02s.02-.03.02-.03h.02s.02-.03.02-.03l.02-.02.02-.02.02-.02.02-.02.02-.02.02-.02.02-.02.02-.02.02-.02.02-.02.02-.02.02-.02.02-.02.02-.02.02-.02.02-.02.02-.02.02-.02.02-.02.02-.02.02-.02.02-.02.02-.02.02-.02.02-.02.02-.02.02-.02.02-.02.02-.02.02-.02.02-.02.02-.02.02-.02.02-.02.02-.02.02-.02.02-.02.02-.02.02-.02.02-.02.02-.02.02-.02.02-.02.02-.02.02-.02.02-.02.02-.02v-.02s.03-.02.03-.02v-.02s.03-.02.03-.02v-.02s.03-.02.03-.02v-.02s.03-.02.03-.02v-.02s.03-.02.03-.02v-.02s.03-.02.03-.02v-.02s.03-.02.03-.02v-.02s.03-.02.03-.02v-.02s.03-.02.03-.02v-.02s.03-.02.03-.02v-.02s.02-.02.02-.02v-.02s.02-.02.02-.02v-.02s.02-.02.02-.02v-.02s.02-.02.02-.02v-.02s.02-.02.02-.02v-.02s.02-.02.02-.02v-.02s.02-.02.02-.02v-.02s.02-.02.02-.02v-.02s.02-.02.02-.02v-.02s.02-.02.02-.02v-.02s.02-.02.02-.02v-.02s.02-.02.02-.02v-.02s.02-.02.02-.02v-.02s.02-.02.02-.02v-.02s.02-.02.02-.02v-.02s.02-.02.02-.02v-.02s.02-.02.02-.02v-.02s.02-.02.02-.02v-.02s.01-.02.01-.02v-.02s.01-.02.01-.02v-.02s.01-.02.01-.02v-.02s.01-.02.01-.02v-.02s.01-.02.01-.02v-.02s.01-.02.01-.02v-.02s.01-.03.01-.03v-.03s.01-.03.01-.03v-.03s.01-.03.01-.03v-.03s0-.03,0-.03v-.03s0-.03,0-.03v-.03s0-.03,0-.03v-.03s0-.03,0-.03v-.03s0-.03,0-.03v-.03s0-.03,0-.03v-.03s0-.03,0-.03v-.03s0-.03,0-.03v-.03s0-.03,0-.03v-.03s0-.03,0-.03v-.03s0-.03,0-.03v-.03s0-.03,0-.03v-.03s0-.03,0-.03v-.03s0-.03,0-.03v-.03s0-.03,0-.03v-.05s0-.03,0-.03v-.03s0-.03,0-.03v-.03s0-.03,0-.03v-.03s0-.03,0-.03v-.03s0-.03,0-.03v-.03s0-.03,0-.03v-.03s0-.03,0-.03v-.03s0-.03,0-.03v-.03s0-.03,0-.03v-.03s0-.03,0-.03v-.03s0-.03,0-.03v-.03s0-.03,0-.03v-.03s0-.03,0-.03v-.03s0-.03,0-.03v-.03s0-.03,0-.03v-.03s-.01-.03-.01-.03v-.03s-.01-.02-.01-.02v-.03s-.01-.02-.01-.02v-.02s-.01-.02-.01-.02v-.02s-.01-.02-.01-.02v-.02s-.01-.02-.01-.02v-.02s-.01-.02-.01-.02v-.02s-.01-.02-.01-.02v-.02s-.02-.02-.02-.02v-.02s-.02-.02-.02-.02v-.02s-.02-.02-.02-.02v-.02s-.02-.02-.02-.02v-.02s-.02-.02-.02-.02v-.02s-.02-.02-.02-.02v-.02s-.02-.02-.02-.02v-.02s-.02-.02-.02-.02v-.02s-.02-.02-.02-.02v-.02s-.02-.02-.02-.02v-.02s-.02-.02-.02-.02v-.02s-.02-.02-.02-.02v-.02s-.02-.02-.02-.02v-.02s-.02-.02-.02-.02v-.02s-.02-.02-.02-.02v-.02s-.02-.02-.02-.02v-.02s-.02-.02-.02-.02v-.02s-.02-.02-.02-.02v-.02s-.03-.02-.03-.02v-.02s-.03-.02-.03-.02v-.02s-.03-.02-.03-.02v-.02s-.03-.02-.03-.02v-.02s-.03-.02-.03-.02v-.02s-.03-.02-.03-.02v-.02s-.03-.02-.03-.02v-.02s-.03-.02-.03-.02v-.02s-.03-.02-.03-.02v-.02s-.03-.02-.03-.02v-.02s-.03-.02-.03-.02v-.02s-.03-.02-.03-.02l-.02-.02-.02-.02-.02-.02-.02-.02-.02-.02-.02-.02-.02-.02-.02-.02-.02-.02-.02-.02-.02-.02-.02-.02-.02-.02-.02-.02-.02-.02-.02-.02-.02-.02-.02-.02-.02-.02-.02-.02-.02-.02-.02-.02-.02-.02-.02-.02-.02-.02-.02-.02-.02-.02-.02-.02-.02-.02-.02-.02-.02-.02-.02-.02-.02-.02-.02-.02-.02-.02-.02-.02-.02-.02-.02-.02-.02-.02-.02-.02-.02-.02-.02-.02-.02-.02-.02-.02-.02-.02h-.02s-.02-.03-.02-.03h-.02s-.02-.03-.02-.03h-.02s-.02-.03-.02-.03h-.02s-.02-.03-.02-.03h-.02s-.02-.03-.02-.03h-.02s-.02-.03-.02-.03h-.02s-.02-.03-.02-.03h-.02s-.02-.03-.02-.03h-.02s-.02-.03-.02-.03h-.02s-.02-.03-.02-.03h-.02s-.02-.02-.02-.02h-.02s-.02-.02-.02-.02h-.02s-.02-.02-.02-.02h-.02s-.02-.02-.02-.02h-.02s-.02-.02-.02-.02h-.02s-.02-.02-.02-.02h-.02s-.02-.02-.02-.02h-.02s-.02-.02-.02-.02h-.02s-.02-.02-.02-.02h-.02s-.02-.02-.02-.02h-.02s-.02-.02-.02-.02h-.02s-.02-.02-.02-.02h-.02s-.02-.02-.02-.02h-.02s-.02-.02-.02-.02h-.02s-.02-.02-.02-.02h-.02s-.02-.02-.02-.02h-.02s-.02-.02-.02-.02h-.02s-.02-.02-.02-.02h-.02s-.02-.01-.02-.01h-.02s-.02-.01-.02-.01h-.02s-.02-.01-.02-.01h-.02s-.02-.01-.02-.01h-.02s-.02-.01-.02-.01h-.02s-.03-.01-.03-.01h-.02s-.03-.01-.03-.01h-.02s-.03-.01-.03-.01h-.03s-.03,0-.03,0h-.03s-.03,0-.03,0h-.03s-.03,0-.03,0h-.03s-.03,0-.03,0h-.03s-.03,0-.03,0h-.03s-.03,0-.03,0h-.03s-.03,0-.03,0h-.03s-.03,0-.03,0h-.03s-.03,0-.03,0h-.03s-.03,0-.03,0h-.03s-.03,0-.03,0h-.03s-.03,0-.03,0h-.03s-.03,0-.03,0h-.03s-.03,0-.03,0h-.03s-.03,0-.03,0h-.03s-.03,0-.03,0h-.03Z"/>
  <circle id="circle28" cx="64.36" cy="8.65" r="4.67"/>
  <circle id="circle30" cx="55.02" cy="17.99" r="4.67"/>
  <circle id="circle32" cx="73.47" cy="17.99" r="4.67"/>
  <circle id="circle34" cx="73.47" cy="27.33" r="4.67"/>
  <path id="path37" d="M83.64,29.75V10.64l13.45,14.69v-13.96h2.08v19.1l-13.45-14.53v13.81h-2.08Z"/>
  <path id="path39" d="M103.56,29.75V11.37h9.69v2h-7.51v5.27h7.51v2.03h-7.51v7.04h7.51v2.03h-9.69Z"/>
  <path id="path41" d="M120.18,29.75V13.45h-5.2v-2.08h12.58v2.08h-5.17v16.3h-2.21Z"/>
  <path id="path43" d="M0,29.8V11.42h9.69v2H2.18v5.27h7.51v2.03H2.18v9.08H0Z"/>
  <path id="path45" d="M12.96,11.42h2.21v11.44c0,1.86.4,3.22,1.19,4.09s2.03,1.31,3.72,1.31,2.93-.44,3.72-1.31c.79-.87,1.19-2.23,1.19-4.09v-11.44h2.22v11.44c0,2.49-.59,4.35-1.78,5.58-1.18,1.23-2.97,1.85-5.35,1.85s-4.16-.62-5.34-1.85c-1.18-1.23-1.78-3.09-1.78-5.58v-11.44Z"/>
  <path id="path47" d="M35.06,11.42h2.21v14.34c0,1.54-.34,2.68-1.02,3.42-.68.74-1.73,1.11-3.15,1.11-.75,0-1.43-.15-2.04-.45-.61-.3-1.18-.76-1.71-1.37l1.44-1.44c.45.47.87.8,1.26,1,.39.2.79.3,1.21.3.66,0,1.13-.25,1.4-.74.27-.49.41-1.46.41-2.91v-13.26Z"/>
  <rect id="rect49" x="41.53" y="11.42" width="2.18" height="18.38"/>
</svg>