<?xml version="1.0" encoding="UTF-8"?>
<svg id="Layer_1" data-name="Layer 1" xmlns="http://www.w3.org/2000/svg" viewBox="0 0 15.98 22.68">
  <defs>
    <style>
      .cls-1 {
        fill: #fff;
      }
    </style>
  </defs>
  <g id="NjLBdC.tif">
    <g>
      <path d="M9.41,22.27c-.12.6-1.23.5-1.36-.07-.07-.3.05-.89-.11-1.13-.11-.16-.99-.36-1.18-.28s-.08.74-.11.94c-.09.59-1.13.45-1.23-.06-.06-.31.08-.93-.08-1.16-.11-.15-1.04-.38-1.13-.26-.14.35.11.93-.18,1.19-.23.21-.52.17-.78.06-.7-.3.04-1.39-.59-1.65-.11-.04-.66-.17-.73-.13-.21.1-.01.87-.15,1.14-.21.41-1.01.3-1.15-.13-.1-.31.06-1.01-.13-1.2-.07-.07-.21-.09-.31-.21-.19-.25-.11-.81-.12-1.13,0-.13-.05-.24-.05-.38,0-.27.39-1.64.54-1.85.12-.18.52-.35.72-.47,1.33-.74,2.72-1.38,4.06-2.1.36-.11,1.12.21,1.51.25-.33.79-.76.33-1.39.35-1.08.63-2.25,1.15-3.33,1.79-.09.05-.21.11-.25.2l9,1.87c1.07-.59,2.2-1.16,3.26-1.81.07-.05.18-.1.24-.14.04-.03.09,0,.06-.11l-5.06-1.05.24-.45.26-.02,5.22,1.08c.08.03.16.05.23.11.11.1.55,1.22.62,1.44.07.23.07.97.02,1.21-.04.16-.2.21-.23.35-.07.35.2,1.31-.32,1.36-.1,0-.35-.09-.35-.17v-.88c-.15.03-.3.14-.43.22-.8.49-1.56,1.06-2.35,1.57-.33.21-1.13.8-1.44.9-.5.16-.98-.3-1.42-.08-.04.27.05.66,0,.91ZM11.27,19.29l3.95-2.27-.3-.74-3.33,1.87-.32.25v.88ZM10.6,18.34l-9.43-2.01-.08.03-.23.93,9.72,2.1c.13-.08.03-.19.02-.31,0-.24.01-.49,0-.73ZM1.39,20.6c.07-.26-.05-.8,0-1.1l.36-.16c-.02-.51-.03-.93.31-1.36-.48-.1-1.13-.45-1.28.25-.03.15-.04.8,0,.94.03.13.19.19.23.39.05.28-.05.77.02.98.04.11.33.23.37.06ZM3.35,19.84c.05.29,0,.86,0,1.19,0,.11.38.16.38,0v-1c0-.15.27-.19.38-.17-.03-.26-.08-.52-.04-.78s.24-.42.32-.66c-.24,0-.66-.2-.88-.19-.46.03-.62.99-.43,1.33.06.11.24.14.26.27ZM6.21,21.6c.04-.14,0-.83,0-1.05,0-.09.29-.2.38-.19l.04-.05c-.13-.49-.03-.92.29-1.31-.49-.08-1.07-.44-1.36.15-.1.21-.18.77-.05.95.03.04.14.05.19.09.26.2.02,1.06.13,1.35.04.13.34.18.37.06ZM8.93,22.13c.05-.18,0-.81,0-1.05,0-.07.29-.21.38-.17-.11-.49-.08-.94.24-1.34l-1.05-.22c-.42.19-.59.89-.4,1.27.06.13.3.1.35.32.06.28-.07.99.05,1.18.06.09.39.16.43,0Z"/>
      <path d="M12.9,2.81c1.81-.04,3.41,2.1,2.33,3.74-.57.87-1.62,1.19-2.62,1.04.54,1.49-.86,3.02-2.37,2.96-.97-.04-.07-.27.19-.39,1.47-.69,2.02-2.31,1.03-3.67.73.34,1.45.22,2.05-.31.1-.09.15-.19.24-.26.02.4-.25.73-.52.98.51.11,1.11-.31,1.4-.71.86-1.21-.43-3-1.84-2.8-.69.1.1.48-.03.62-.23-.05-.4-.19-.63-.25-.49-.13-.85-.05-1.33.06-.14-.13.8-.53.86-.59.12-.13.08-.27.21-.41.29-.32.86-.33.89-.98.04-1.02-1.63-1.39-2.41-1.31-.6.06-1.69.5-1.79,1.18-.05.33.12.33.23.58-1.05-.15-.91-1.05-.26-1.62.92-.82,2.42-.84,3.49-.3.69.35,1.56,1.15,1.17,2-.08.17-.25.27-.29.45Z"/>
      <path d="M8.46,2.77c-1.17-.46-2.94-.11-3.51,1.1-.43.91.09,2.1,1.08,2.34,0-.53.41-1.08.91-1.24-.77.94-.38,2.22.62,2.79-.62.1-1.25-.36-1.46-.93-.03-.08.02-.28-.09-.24-.04.01-.36.27-.41.31-.59.58-.1,1.25.51,1.55.21.1.48.14.67.24.05.03.09-.02.07.1-1.51.64-3.19-1.24-1.62-2.36-.34-.23-.62-.49-.82-.85-1.13-2.05,1.46-4.12,3.41-3.36.1.04.8.41.66.56Z"/>
      <path d="M9.36,8.59l-1.31.53c-.82.42-1.87,1.26-1.51,2.31.32.93,1.95,1.33,1.42,2.52-.13.3-.51.61-.56.92-.07.46.14.81.43,1.14-.48.03-1.1-.51-1.15-1-.08-.96,1.38-1.23.21-2.27-.75-.67-1.65-1.14-1.04-2.38s2.23-1.54,3.5-1.77Z"/>
      <path d="M9.12,16.04c-.65-.1-1.14-.62-1.05-1.31s1.32-1.23,1.46-2.07c.11-.66-.27-1-.75-1.35,1.09-.07,1.86.94,1.31,1.95-.3.55-.89.83-1.24,1.29-.4.52-.03,1.02.26,1.48Z"/>
      <path d="M8.22,12.08c-.33-.2-.44-.55-.38-.93.08-.53,1.12-.95,1.54-1.23,1.04-.7,1.53-1.72.61-2.78.38-.01.77.44.9.77.65,1.67-1.2,2.25-2.18,2.95-.43.31-.77.66-.48,1.21Z"/>
      <path class="cls-1" d="M10.6,18.34c.02.24,0,.49,0,.73,0,.11.11.23-.02.31L.86,17.28l.23-.93.08-.03,9.43,2.01Z"/>
      <polygon class="cls-1" points="11.27 19.29 11.27 18.4 11.59 18.15 14.93 16.28 15.22 17.02 11.27 19.29"/>
      <path class="cls-1" d="M8.93,22.13c-.04.16-.38.08-.43,0-.12-.18,0-.9-.05-1.18-.05-.22-.29-.2-.35-.32-.18-.38-.02-1.08.4-1.27l1.05.22c-.32.4-.35.85-.24,1.34-.09-.04-.38.1-.38.17,0,.24.05.87,0,1.05Z"/>
      <path class="cls-1" d="M6.21,21.6c-.04.13-.33.07-.37-.06-.1-.3.13-1.15-.13-1.35-.05-.04-.16-.05-.19-.09-.13-.19-.05-.74.05-.95.29-.59.86-.23,1.36-.15-.32.39-.42.81-.29,1.31l-.04.05c-.1-.01-.38.1-.38.19,0,.22.04.91,0,1.05Z"/>
      <path class="cls-1" d="M3.35,19.84c-.02-.12-.2-.16-.26-.27-.19-.34-.03-1.3.43-1.33.22-.01.64.19.88.19-.08.23-.28.4-.32.66s0,.52.04.78c-.12-.02-.38.02-.38.17v1c0,.16-.38.11-.38,0,0-.33.05-.9,0-1.19Z"/>
      <path class="cls-1" d="M1.39,20.6c-.05.18-.34.06-.37-.06-.07-.21.03-.71-.02-.98-.04-.21-.2-.26-.23-.39-.03-.14-.02-.8,0-.94.15-.7.8-.35,1.28-.25-.33.44-.32.85-.31,1.36l-.36.16c-.05.29.07.84,0,1.1Z"/>
    </g>
  </g>
</svg>