<?xml version="1.0" encoding="UTF-8"?>
<svg id="Layer_1" data-name="Layer 1" xmlns="http://www.w3.org/2000/svg" viewBox="0 0 53.63 18.38">
  <defs>
    <style>
      .cls-1 {
        fill: #231f20;
      }
    </style>
  </defs>
  <path class="cls-1" d="M0,18.38L4.65,0h4.31l2.24,7.99L13.53,0h4.06l3.81,13.49h9.29c.97,0,1.03-2.04-.07-2.04h-5.41c-2.32.02-4.77-2.56-4.65-5.91C20.58,2.47,23.26,0,26.68,0h13.79l3.51,4.82L47.41,0h5.71l-6.26,8.84,6.77,9.54h-5.68l-3.94-5.49-3.75,5.49h-5.79l6.6-9.45-2.88-4.19-11.99.02c-1.31.01-1.26,2.07.01,2.03h5.05c2.14.01,5.14,2.31,5.07,5.77.03,4.03-3.59,5.91-5.34,5.82h-13.23l-2.2-8.27-2.2,8.27h-4.17l-2.3-8.23-2.02,8.23H0Z"/>
</svg>